<?xml version="1.0" standalone="no"?>
<!DOCTYPE svg PUBLIC "-//W3C//DTD SVG 20010904//EN"
 "http://www.w3.org/TR/2001/REC-SVG-20010904/DTD/svg10.dtd">
<svg version="1.0" xmlns="http://www.w3.org/2000/svg"
 width="1635.000000pt" height="2193.000000pt" viewBox="0 0 1635.000000 2193.000000"
 preserveAspectRatio="xMidYMid meet">
<metadata>
Created by potrace 1.15, written by Peter Selinger 2001-2017
</metadata>
<g transform="translate(0.000000,2193.000000) scale(0.100000,-0.100000)"
fill="#000000" stroke="none">
<path d="M4705 21906 c-55 -25 -110 -81 -131 -132 -12 -28 -14 -930 -14 -5802
l0 -5768 28 -55 c30 -60 91 -112 150 -129 52 -14 7002 -14 7054 0 59 17 120
69 151 129 l27 55 0 5768 c0 4872 -2 5774 -14 5802 -21 51 -76 107 -131 132
l-50 24 -3510 0 -3510 0 -50 -24z m705 -641 c188 -227 191 -231 186 -270 -6
-54 -47 -90 -121 -105 -32 -7 -61 -8 -65 -3 -5 4 -92 107 -194 227 -197 233
-203 244 -172 304 28 54 79 83 143 79 28 -2 51 -26 223 -232z m190 110 l0
-125 -92 103 c-51 56 -102 112 -112 125 l-19 22 111 0 112 0 0 -125z m-479
-352 c51 -60 99 -116 107 -125 14 -17 9 -18 -96 -18 l-112 0 0 125 c0 69 2
125 4 125 3 0 46 -48 97 -107z m121 -605 l3 -163 68 -3 67 -3 0 166 0 165 110
0 110 0 0 -310 0 -310 -110 0 -110 0 0 130 0 130 -70 0 -70 0 0 -130 0 -130
-110 0 -110 0 0 310 0 310 110 0 110 0 2 -162z m8 -1059 l0 -311 -65 4 c-71 4
-108 24 -137 74 -20 34 -20 46 -19 327 l1 217 110 0 110 0 0 -311z m350 1 l0
-310 -115 0 -115 0 0 310 0 310 115 0 115 0 0 -310z m4311 -113 c63 -33 91
-85 86 -160 -5 -92 -59 -147 -150 -155 -154 -13 -245 160 -144 275 58 66 132
80 208 40z m-2724 -63 c129 -97 85 -294 -70 -311 -88 -10 -162 40 -188 127
-21 71 24 164 96 196 41 20 129 13 162 -12z m3582 -185 c45 -28 67 -56 81
-105 22 -77 -18 -160 -94 -195 -52 -23 -90 -23 -142 0 -125 57 -131 228 -10
302 43 26 121 25 165 -2z m-4359 -28 c127 -67 111 -254 -25 -306 -112 -43
-225 39 -225 162 0 124 138 204 250 144z m3056 -99 c-186 -296 -338 -889 -372
-1464 l-7 -108 106 0 107 0 0 50 c0 103 39 429 77 634 15 81 20 94 66 150 171
207 450 428 653 517 65 28 184 69 202 69 8 0 -5 -22 -31 -52 -197 -232 -403
-694 -532 -1193 -20 -77 -39 -148 -41 -157 -5 -16 4 -18 100 -18 l106 0 0
-210 0 -210 -48 0 -49 0 -6 -1180 c-5 -775 -3 -1215 3 -1282 25 -254 76 -484
170 -772 68 -211 74 -268 40 -379 -99 -320 -527 -389 -730 -118 -68 91 -208
544 -265 861 -13 69 -24 114 -24 100 -15 -366 -44 -873 -52 -904 -18 -69 -70
-155 -121 -201 -235 -211 -601 -104 -683 200 -17 63 -17 83 -1 468 10 221 16
424 14 451 l-3 48 -78 28 c-77 27 -77 27 -82 6 -3 -12 -16 -73 -30 -136 -14
-63 -41 -168 -60 -233 -42 -141 -176 -520 -200 -568 -90 -173 -310 -261 -497
-198 -138 46 -229 143 -272 288 -29 98 -22 149 45 341 137 393 180 551 222
823 21 141 21 153 18 1239 l-3 1096 43 10 c38 9 29 10 -68 11 l-113 1 0 210 0
210 121 0 121 0 -7 33 c-4 17 -31 115 -60 217 -130 454 -288 802 -477 1051
-79 103 -80 103 77 42 164 -64 341 -177 504 -322 72 -64 228 -232 258 -278 27
-40 102 -366 137 -593 10 -58 19 -115 22 -127 4 -22 9 -23 110 -23 l105 0 -6
33 c-3 17 -16 102 -30 187 -94 568 -260 1041 -471 1337 -16 22 -14 22 56 -7
291 -120 572 -370 800 -711 l68 -102 -43 -96 c-65 -148 -129 -325 -174 -481
-23 -78 -41 -146 -41 -151 0 -6 44 -8 106 -7 l106 3 35 120 c52 179 115 340
208 530 212 431 481 739 792 907 48 26 91 48 96 48 4 0 -4 -17 -17 -38z
m-4224 -254 l3 -133 98 -3 97 -3 0 -39 0 -40 -100 0 -100 0 0 -135 0 -135
-110 0 -110 0 0 310 0 310 110 0 109 0 3 -132z m358 61 l0 -72 -71 7 c-109 10
-149 40 -149 112 0 24 0 24 110 24 l110 0 0 -71z m5705 -5064 c107 -129 195
-243 195 -253 0 -69 -53 -119 -137 -129 l-49 -5 -192 225 c-204 240 -206 244
-178 312 21 49 71 76 153 84 7 0 101 -105 208 -234z m195 110 l0 -125 -92 103
c-51 56 -102 112 -112 125 l-19 22 111 0 112 0 0 -125z m-479 -352 c51 -60 99
-116 107 -125 14 -17 9 -18 -96 -18 l-112 0 0 125 c0 69 2 125 4 125 3 0 46
-48 97 -107z m119 -608 l0 -165 70 0 70 0 0 165 0 165 110 0 110 0 0 -305 0
-305 -110 0 -110 0 0 130 0 131 -67 -3 -68 -3 -3 -127 -3 -128 -109 0 -110 0
0 305 0 305 110 0 110 0 0 -165z m10 -1056 l0 -311 -65 4 c-73 4 -108 24 -140
79 -18 31 -20 56 -24 287 l-3 252 116 0 116 0 0 -311z m350 1 l0 -310 -115 0
-115 0 0 310 0 310 115 0 115 0 0 -310z m-350 -745 l0 -135 95 0 95 0 0 -40 0
-40 -95 0 -95 0 0 -135 0 -135 -110 0 -110 0 0 310 0 310 110 0 110 0 0 -135z
m350 64 l0 -72 -71 7 c-109 10 -149 40 -149 112 0 24 0 24 110 24 l110 0 0
-71z"/>
<path d="M9772 19157 c-27 -29 -29 -86 -4 -116 9 -12 34 -24 54 -28 32 -5 41
-1 69 26 27 28 31 37 26 69 -4 20 -16 45 -28 55 -31 25 -91 22 -117 -6z"/>
<path d="M7042 19105 c-26 -21 -32 -34 -32 -65 0 -31 6 -44 32 -65 38 -32 81
-29 116 11 43 49 14 127 -54 140 -24 4 -37 0 -62 -21z"/>
<path d="M10645 18928 c-31 -18 -44 -40 -45 -76 0 -75 104 -114 149 -56 36 46
27 105 -20 129 -33 18 -57 18 -84 3z"/>
<path d="M6269 18881 c-56 -57 -21 -141 59 -141 51 0 82 32 82 84 0 80 -84
114 -141 57z"/>
<path d="M7150 17090 l0 -120 1335 0 1335 0 0 120 0 120 -1335 0 -1335 0 0
-120z"/>
<path d="M8418 16500 c-293 -35 -543 -263 -602 -552 -33 -162 -15 -306 60
-458 39 -79 62 -110 133 -181 71 -71 102 -94 181 -133 52 -25 127 -53 165 -61
316 -66 639 92 776 380 55 115 70 182 70 310 1 198 -62 348 -205 491 -158 158
-359 229 -578 204z m-76 -706 c125 -87 125 -271 1 -358 -86 -60 -219 -44 -286
35 -73 85 -75 199 -4 285 45 54 98 75 179 72 56 -3 75 -9 110 -34z"/>
<path d="M145 12061 c-46 -21 -98 -69 -123 -115 -16 -29 -17 -363 -17 -5816 0
-5546 1 -5786 18 -5821 25 -50 74 -98 122 -120 38 -18 173 -19 3565 -19 l3526
0 54 33 c40 23 64 47 87 87 l33 54 0 4728 0 4728 -1347 2 -1348 3 -67 26
c-123 48 -220 144 -270 267 l-23 57 -3 963 -2 962 -2083 0 c-1995 0 -2084 -1
-2122 -19z m704 -641 c202 -243 207 -251 175 -311 -18 -36 -82 -68 -135 -69
-36 0 -43 7 -228 225 -206 242 -207 244 -172 314 23 45 69 70 128 71 l42 0
190 -230z m191 108 l0 -123 -23 25 c-13 14 -63 69 -111 123 l-88 97 111 0 111
0 0 -122z m-447 -385 c48 -55 87 -103 87 -107 0 -3 -47 -6 -105 -6 l-105 0 0
128 c1 121 1 126 18 107 9 -12 56 -66 105 -122z m87 -568 l0 -165 70 0 70 0 0
165 0 165 110 0 110 0 0 -310 0 -310 -110 0 -110 0 0 125 0 125 -70 0 -70 0 0
-125 0 -125 -105 0 -105 0 0 310 0 310 105 0 105 0 0 -165z m10 -1066 l0 -312
-60 6 c-72 6 -116 30 -141 77 -17 31 -19 60 -19 287 l0 253 110 0 110 0 0
-311z m350 1 l0 -310 -110 0 -110 0 0 310 0 310 110 0 110 0 0 -310z m4321
-113 c53 -36 79 -82 79 -141 0 -118 -102 -199 -211 -167 -111 33 -161 162 -99
256 48 73 162 99 231 52z m-2743 -55 c108 -50 116 -220 14 -288 -168 -113
-361 117 -216 258 57 57 124 67 202 30z m3578 -181 c128 -58 136 -238 14 -302
-112 -60 -250 20 -250 144 0 130 120 210 236 158z m-4374 -21 c46 -13 105 -77
114 -124 26 -140 -108 -247 -240 -192 -100 42 -127 192 -48 272 50 50 103 63
174 44z m3088 -110 c-40 -56 -139 -276 -180 -400 -97 -292 -172 -704 -196
-1077 l-7 -103 105 0 105 0 7 103 c10 146 33 339 62 512 31 180 31 181 204
356 147 148 302 266 449 343 97 49 279 121 287 113 2 -2 -21 -35 -52 -73 -196
-245 -392 -689 -519 -1179 -20 -77 -39 -148 -41 -157 -5 -16 4 -18 100 -18
l106 0 0 -205 0 -205 -50 0 -50 0 -2 -807 c-5 -1511 -4 -1635 15 -1768 36
-248 72 -398 159 -665 58 -178 60 -188 56 -270 -6 -113 -34 -184 -103 -258
-186 -201 -499 -181 -651 41 -35 51 -152 389 -198 572 -21 84 -64 299 -79 395
-2 14 -5 -2 -6 -35 -6 -234 -42 -857 -52 -890 -39 -138 -142 -243 -277 -285
-236 -73 -478 68 -532 310 -10 45 -9 122 4 400 9 190 16 390 16 445 l0 100
-77 27 c-42 15 -78 27 -79 25 -1 -1 -19 -74 -39 -161 -54 -235 -215 -718 -269
-810 -82 -141 -266 -226 -423 -197 -178 33 -307 159 -343 336 -19 90 -7 143
85 404 93 264 152 490 187 711 l23 145 -4 1065 c-2 586 0 1084 3 1106 7 40 8
42 59 51 47 9 39 11 -75 12 l-128 1 0 205 0 205 120 0 c92 0 120 3 120 13 0
22 -85 322 -128 452 -114 346 -276 673 -422 853 -28 35 -49 66 -46 69 9 9 140
-39 241 -89 182 -90 323 -197 500 -379 144 -148 162 -173 185 -256 37 -133 87
-380 120 -590 l12 -73 104 0 c84 0 104 3 104 14 0 33 -61 371 -90 501 -91 407
-226 763 -373 983 -65 97 -66 97 98 16 261 -128 496 -346 706 -656 l79 -116
-44 -99 c-79 -178 -182 -477 -211 -611 l-7 -33 107 3 107 3 42 140 c63 208
108 321 206 520 210 426 460 715 775 894 104 60 126 64 95 21z m-4230 -260 l0
-130 100 0 100 0 0 -45 0 -45 -100 0 -100 0 0 -130 0 -130 -105 0 -105 0 0
305 0 305 105 0 105 0 0 -130z m360 65 l0 -65 -60 0 c-100 0 -146 28 -157 94
l-6 36 112 0 111 0 0 -65z m5900 -4952 l0 -128 -23 25 c-80 85 -197 218 -197
224 0 3 50 6 110 6 l110 0 0 -127z m-190 -118 c206 -249 213 -263 169 -319
-28 -36 -66 -54 -121 -58 l-45 -3 -191 225 c-127 149 -192 233 -192 248 0 81
71 144 158 139 29 -2 50 -23 222 -232z m-257 -272 c48 -55 87 -103 87 -107 0
-3 -47 -6 -105 -6 l-105 0 0 128 c1 121 1 126 18 107 9 -12 56 -66 105 -122z
m87 -568 l0 -165 70 0 70 0 0 165 0 165 110 0 110 0 0 -310 0 -310 -110 0
-110 0 0 130 0 131 -67 -3 -68 -3 -3 -127 -3 -128 -104 0 -105 0 0 310 0 310
105 0 105 0 0 -165z m10 -1066 l0 -312 -60 6 c-72 6 -116 30 -141 77 -17 31
-19 60 -19 287 l0 253 110 0 110 0 0 -311z m350 1 l0 -310 -110 0 -110 0 0
310 0 310 110 0 110 0 0 -310z m-350 -735 l0 -135 95 0 95 0 0 -45 0 -45 -95
0 -95 0 0 -130 0 -130 -110 0 -110 0 0 310 0 310 110 0 110 0 0 -135z m350 65
l0 -70 -62 0 c-101 0 -157 40 -158 113 l0 27 110 0 110 0 0 -70z"/>
<path d="M5216 9315 c-35 -32 -36 -92 -3 -123 33 -31 90 -30 122 3 35 34 33
78 -4 116 -37 37 -78 38 -115 4z"/>
<path d="M2476 9254 c-55 -55 -18 -144 59 -144 49 0 85 36 85 85 0 77 -89 114
-144 59z"/>
<path d="M6065 9064 c-34 -37 -33 -78 4 -115 58 -57 141 -23 141 59 0 78 -92
113 -145 56z"/>
<path d="M1722 9053 c-17 -6 -42 -57 -42 -83 0 -33 53 -80 89 -80 74 0 113 90
61 145 -23 24 -72 33 -108 18z"/>
<path d="M2590 7240 l0 -120 1335 0 1335 0 0 120 0 120 -1335 0 -1335 0 0
-120z"/>
<path d="M3795 6644 c-240 -52 -446 -242 -521 -480 -102 -319 46 -673 343
-827 114 -59 200 -80 328 -80 121 0 200 18 310 73 152 75 253 179 325 335 79
169 88 340 29 518 -48 146 -175 301 -309 380 -144 84 -345 116 -505 81z m-62
-670 c58 -20 122 -87 137 -145 35 -128 -51 -257 -181 -275 -102 -14 -204 52
-236 152 -14 46 -15 61 -4 110 11 46 22 66 60 104 67 67 137 84 224 54z"/>
<path d="M12178 11038 l-3 -883 -23 -57 c-50 -123 -147 -219 -270 -267 l-67
-26 -1442 -3 -1443 -2 0 -4803 0 -4802 21 -45 c27 -60 64 -98 124 -126 l50
-24 3504 0 c2657 0 3513 3 3543 12 51 15 126 82 149 133 18 39 19 235 19 5811
0 5104 -2 5776 -15 5807 -21 50 -70 104 -119 130 l-41 22 -1992 3 -1993 2 -2
-882z m-2558 -1699 l0 -311 -57 7 c-78 10 -125 35 -146 79 -15 32 -17 70 -17
286 l0 250 110 0 110 0 0 -311z m350 1 l0 -310 -110 0 -110 0 0 310 0 310 110
0 110 0 0 -310z m4285 -93 c74 -29 115 -86 115 -160 0 -181 -246 -237 -321
-73 -23 52 -23 90 0 141 22 49 48 73 98 91 46 16 68 16 108 1z m-2719 -66
c130 -59 132 -239 2 -307 -15 -8 -48 -14 -73 -14 -142 0 -221 163 -133 275 26
33 91 65 133 65 17 0 48 -9 71 -19z m3581 -182 c44 -16 90 -67 103 -115 43
-154 -139 -276 -267 -178 -59 45 -80 134 -49 207 33 78 131 117 213 86z
m-4331 -44 c47 -28 84 -90 84 -143 0 -104 -102 -187 -204 -168 -86 16 -139 87
-134 178 9 130 141 199 254 133z m3049 -97 c-91 -146 -207 -455 -259 -691 -54
-239 -98 -549 -112 -779 l-7 -108 105 0 105 0 7 112 c8 133 38 375 68 546 l21
123 62 72 c163 190 380 369 565 466 83 43 255 111 281 111 5 0 -20 -38 -56
-84 -204 -265 -371 -646 -515 -1181 -22 -82 -40 -153 -40 -157 0 -4 47 -8 105
-8 l105 0 0 -205 0 -205 -48 0 -49 0 -6 -1177 c-6 -1013 -5 -1196 8 -1321 27
-254 70 -445 167 -742 58 -178 60 -188 56 -270 -11 -227 -189 -395 -418 -393
-130 1 -250 62 -326 165 -72 98 -205 527 -268 863 -15 82 -25 115 -25 90 -1
-22 -10 -225 -21 -450 -21 -435 -26 -473 -80 -560 -56 -90 -173 -166 -290
-187 -210 -39 -422 108 -471 328 -9 40 -8 131 5 410 9 198 16 398 16 445 l0
86 -76 28 c-79 28 -93 25 -94 -16 0 -24 -68 -295 -100 -400 -53 -172 -177
-507 -201 -541 -85 -125 -204 -189 -349 -189 -126 0 -218 39 -302 129 -55 59
-83 110 -104 194 -25 97 -15 156 71 397 116 328 154 468 197 741 l23 145 -3
1090 c-2 617 1 1096 6 1103 4 7 28 16 53 21 35 7 20 9 -78 10 l-123 1 0 205 0
205 120 0 c92 0 120 3 120 13 0 26 -92 346 -141 492 -120 351 -275 657 -427
839 -23 28 -40 51 -38 53 6 7 183 -60 257 -98 115 -57 273 -167 384 -267 97
-87 249 -252 271 -295 25 -49 104 -410 144 -664 l12 -73 105 0 104 0 -6 48
c-86 609 -257 1151 -457 1450 -31 45 -51 82 -44 82 21 0 234 -108 298 -151
204 -137 397 -340 565 -591 l64 -97 -21 -40 c-30 -60 -108 -253 -142 -351 -32
-93 -98 -322 -98 -339 0 -7 37 -11 105 -11 l104 0 21 73 c127 438 306 800 533
1082 82 102 242 257 329 318 52 37 242 146 256 147 2 0 -9 -19 -23 -42z
m-4223 -250 l3 -133 98 -3 97 -3 0 -39 0 -39 -97 -3 -98 -3 -3 -132 -3 -133
-104 0 -105 0 0 310 0 310 105 0 104 0 3 -132z m358 62 l0 -70 -47 0 c-112 1
-161 29 -170 99 l-6 41 112 0 111 0 0 -70z m5900 -4957 c0 -72 -4 -123 -9
-117 -114 125 -211 235 -211 239 0 3 50 5 110 5 l110 0 0 -127z m-191 -114
c134 -161 191 -238 191 -255 0 -66 -70 -123 -152 -124 -36 0 -42 6 -225 221
-131 154 -189 230 -191 249 -5 41 31 104 70 123 18 9 52 17 75 17 l41 0 191
-231z m-297 -226 c41 -49 87 -103 102 -120 l28 -33 -106 0 -106 0 0 120 c0 66
2 120 4 120 2 0 37 -39 78 -87z m128 -618 l0 -165 70 0 70 0 0 165 0 165 110
0 110 0 0 -310 0 -310 -110 0 -110 0 0 130 0 130 -70 0 -70 0 0 -130 0 -130
-105 0 -105 0 0 310 0 310 105 0 105 0 0 -165z m10 -1066 l0 -311 -57 7 c-78
10 -125 35 -146 79 -15 32 -17 70 -17 286 l0 250 110 0 110 0 0 -311z m350 1
l0 -310 -110 0 -110 0 0 310 0 310 110 0 110 0 0 -310z m-350 -735 l0 -135 95
0 95 0 0 -40 0 -40 -95 0 -95 0 0 -135 0 -135 -110 0 -110 0 0 310 0 310 110
0 110 0 0 -135z m350 65 l0 -70 -47 0 c-112 1 -161 29 -170 99 l-6 41 112 0
111 0 0 -70z"/>
<path d="M14146 9149 c-36 -28 -37 -89 -1 -124 66 -67 171 8 135 96 -22 52
-86 66 -134 28z"/>
<path d="M11405 9085 c-60 -59 -2 -161 80 -141 97 24 79 166 -20 166 -25 0
-44 -8 -60 -25z"/>
<path d="M15024 8920 c-54 -21 -70 -91 -31 -134 34 -40 77 -43 115 -11 45 38
45 92 1 129 -32 27 -50 30 -85 16z"/>
<path d="M10639 8871 c-46 -47 -37 -106 22 -136 25 -13 37 -14 65 -5 39 13 54
35 54 79 0 43 -9 60 -41 76 -42 22 -67 18 -100 -14z"/>
<path d="M11520 7075 l0 -125 1335 0 1335 0 0 125 0 125 -1335 0 -1335 0 0
-125z"/>
<path d="M12711 6475 c-238 -54 -453 -263 -516 -503 -95 -358 101 -721 457
-850 66 -24 87 -26 218 -27 137 0 150 2 231 31 370 132 562 529 435 895 -69
199 -233 362 -435 432 -74 26 -103 31 -206 34 -79 2 -142 -2 -184 -12z m-22
-681 c123 -62 157 -221 69 -328 -111 -135 -331 -89 -378 80 -38 134 70 274
210 274 30 0 65 -9 99 -26z"/>
</g>
</svg>
