<?xml version="1.0" standalone="no"?>
<!DOCTYPE svg PUBLIC "-//W3C//DTD SVG 20010904//EN"
 "http://www.w3.org/TR/2001/REC-SVG-20010904/DTD/svg10.dtd">
<svg version="1.0" xmlns="http://www.w3.org/2000/svg"
 width="2900.000000pt" height="1447.000000pt" viewBox="0 0 2900.000000 1447.000000"
 preserveAspectRatio="xMidYMid meet">
<metadata>
Created by potrace 1.15, written by Peter Selinger 2001-2017
</metadata>
<g transform="translate(0.000000,1447.000000) scale(0.100000,-0.100000)"
fill="#000000" stroke="none">
<path d="M145 14446 c-60 -28 -97 -66 -124 -126 l-21 -45 0 -5766 0 -5765 26
-52 c14 -29 42 -65 62 -82 79 -65 -225 -60 3637 -58 l3510 3 41 22 c48 25 101
83 120 129 12 28 14 930 14 5806 0 5569 -1 5774 -19 5813 -22 48 -70 97 -120
122 -34 17 -192 18 -3556 20 l-3520 3 -50 -24z m705 -641 c206 -249 213 -263
169 -319 -28 -36 -66 -54 -121 -58 l-45 -3 -191 225 c-127 149 -192 233 -192
248 0 81 71 144 158 139 29 -2 50 -23 222 -232z m190 113 l-1 -123 -70 75
c-39 41 -88 96 -111 123 l-40 47 111 0 111 0 0 -122z m-366 -485 c5 -10 -17
-13 -98 -13 l-106 0 0 125 0 125 98 -112 c54 -62 101 -119 106 -125z m8 -475
l3 -163 68 -3 67 -3 0 166 0 165 110 0 110 0 0 -310 0 -310 -110 0 -110 0 0
130 0 130 -70 0 -70 0 0 -130 0 -130 -105 0 -105 0 0 310 0 310 105 0 105 0 2
-162z m8 -1059 l0 -311 -65 4 c-74 5 -110 25 -137 79 -16 30 -18 66 -18 287
l0 252 110 0 110 0 0 -311z m350 1 l0 -310 -110 0 -110 0 0 310 0 310 110 0
110 0 0 -310z m4306 -109 c59 -27 87 -72 92 -146 3 -50 0 -65 -20 -94 -36 -53
-71 -74 -132 -79 -155 -13 -240 159 -138 280 49 58 123 73 198 39z m-2743 -55
c73 -30 120 -124 98 -196 -58 -194 -333 -161 -333 40 0 124 120 204 235 156z
m3604 -193 c73 -34 109 -129 79 -208 -41 -106 -160 -144 -256 -81 -46 30 -70
79 -70 144 0 122 132 200 247 145z m-4340 -39 c16 -12 38 -38 50 -60 93 -162
-119 -333 -257 -208 -46 42 -64 90 -57 151 6 52 29 88 78 121 29 20 44 23 96
20 43 -3 72 -10 90 -24z m3038 -96 c-185 -297 -332 -877 -371 -1465 l-7 -103
105 0 105 0 7 103 c17 238 76 644 101 682 24 38 176 198 258 272 115 105 241
193 366 257 104 53 238 106 267 106 9 0 -6 -26 -40 -68 -201 -248 -387 -673
-526 -1197 -17 -66 -34 -128 -36 -137 -5 -16 4 -18 100 -18 l106 0 0 -210 0
-210 -48 0 -49 0 -6 -1164 c-7 -1203 -5 -1271 34 -1516 28 -174 60 -303 136
-535 64 -196 65 -202 61 -290 -3 -75 -9 -101 -35 -157 -41 -86 -109 -155 -198
-199 -66 -32 -75 -34 -175 -34 -86 1 -116 5 -163 24 -75 30 -174 121 -209 193
-65 133 -187 559 -232 811 -19 105 -24 122 -25 82 -1 -27 -10 -232 -21 -455
-21 -443 -25 -471 -89 -564 -90 -131 -259 -204 -407 -177 -170 32 -298 149
-340 311 -15 60 -15 90 1 435 9 203 15 405 13 449 l-3 78 -77 28 -77 27 -11
-56 c-20 -95 -70 -291 -101 -392 -59 -195 -177 -508 -208 -552 -40 -59 -102
-109 -177 -144 -53 -25 -70 -28 -165 -28 -101 0 -108 1 -181 38 -119 58 -191
148 -224 279 -25 95 -14 157 60 364 93 260 131 386 165 542 68 313 66 262 66
1474 0 603 3 1100 7 1104 4 4 25 10 45 14 26 5 0 8 -79 9 l-118 1 0 210 0 210
121 0 121 0 -7 33 c-21 93 -91 333 -141 477 -120 350 -257 622 -411 813 -29
37 -50 67 -45 67 5 0 42 -11 82 -25 268 -91 548 -297 783 -576 39 -47 50 -70
72 -150 34 -129 70 -300 94 -449 12 -69 23 -140 26 -157 l6 -33 104 0 c58 0
105 4 105 8 0 5 -14 91 -30 193 -91 551 -241 997 -436 1296 l-53 82 49 -19
c305 -120 595 -376 828 -732 l63 -96 -25 -50 c-61 -121 -171 -423 -211 -582
-9 -36 -18 -73 -21 -82 -5 -16 5 -18 104 -18 l110 0 6 35 c4 20 25 93 48 163
182 570 500 1053 848 1286 69 47 209 126 223 126 5 0 -4 -19 -18 -42z m-4223
-250 l3 -133 98 -3 97 -3 0 -39 0 -40 -100 0 -100 0 0 -135 0 -135 -105 0
-105 0 0 310 0 310 105 0 104 0 3 -132z m358 61 l0 -72 -70 7 c-38 3 -81 11
-95 18 -30 14 -55 55 -55 93 l0 25 110 0 110 0 0 -71z m5708 -5064 c203 -246
208 -255 177 -315 -19 -36 -61 -59 -123 -67 l-48 -5 -192 227 c-204 242 -207
246 -176 312 24 50 77 78 154 81 8 1 102 -104 208 -233z m192 113 l-1 -123
-70 75 c-39 41 -88 96 -111 123 l-40 47 111 0 111 0 0 -122z m-366 -485 c5
-10 -17 -13 -98 -13 l-106 0 0 125 0 125 98 -112 c54 -62 101 -119 106 -125z
m8 -475 l3 -163 68 -3 67 -3 0 166 0 165 110 0 110 0 0 -305 0 -305 -110 0
-110 0 0 130 0 131 -67 -3 -68 -3 -3 -127 -3 -128 -104 0 -105 0 0 305 0 305
105 0 105 0 2 -162z m8 -1059 l0 -311 -65 4 c-74 5 -110 25 -137 79 -16 30
-18 66 -18 287 l0 252 110 0 110 0 0 -311z m350 1 l0 -310 -110 0 -110 0 0
310 0 310 110 0 110 0 0 -310z m-350 -745 l0 -135 95 0 95 0 0 -40 0 -40 -95
0 -95 0 0 -135 0 -135 -110 0 -110 0 0 310 0 310 110 0 110 0 0 -135z m350 64
l0 -72 -70 7 c-38 3 -81 11 -95 18 -30 14 -55 55 -55 93 l0 25 110 0 110 0 0
-71z"/>
<path d="M5212 11697 c-22 -23 -29 -68 -16 -102 8 -19 55 -45 84 -45 33 0 80
53 80 90 0 71 -99 109 -148 57z"/>
<path d="M2504 11660 c-54 -21 -70 -91 -31 -134 34 -40 77 -43 115 -11 45 38
45 92 1 129 -32 27 -50 30 -85 16z"/>
<path d="M6069 11451 c-57 -58 -23 -141 59 -141 51 0 82 32 82 84 0 80 -84
114 -141 57z"/>
<path d="M1709 11421 c-31 -31 -36 -59 -17 -94 17 -33 39 -46 79 -47 76 0 113
96 55 146 -38 33 -80 31 -117 -5z"/>
<path d="M2590 9630 l0 -120 1335 0 1335 0 0 120 0 120 -1335 0 -1335 0 0
-120z"/>
<path d="M3858 9040 c-279 -33 -520 -243 -595 -520 -21 -79 -24 -260 -4 -340
7 -30 33 -98 58 -150 38 -79 59 -108 132 -180 71 -72 102 -95 181 -133 209
-103 419 -103 630 1 78 38 109 60 175 127 126 126 185 249 207 424 28 225 -73
469 -253 617 -144 118 -343 176 -531 154z m-102 -689 c95 -43 144 -157 112
-262 -53 -178 -307 -202 -398 -39 -62 112 -9 261 110 309 41 16 131 12 176 -8z"/>
<path d="M7620 12337 l0 -1603 67 -50 c158 -115 351 -327 490 -535 l66 -98
-55 -128 c-67 -155 -138 -357 -177 -504 l-30 -109 108 0 108 0 18 68 c97 364
294 773 503 1046 106 139 300 320 438 408 38 25 159 88 167 88 3 0 -28 -64
-67 -142 -160 -319 -262 -735 -311 -1278 -8 -91 -15 -171 -15 -177 0 -10 28
-13 105 -13 80 0 105 3 105 13 0 42 34 362 50 472 29 194 48 285 66 313 27 42
245 261 320 323 156 128 334 229 498 283 43 14 80 26 83 26 2 0 -21 -30 -50
-67 -163 -203 -306 -491 -431 -865 -50 -150 -136 -456 -136 -485 0 -10 28 -13
105 -13 l105 0 -2 -207 -3 -208 -50 -3 -50 -3 -2 -772 c-1 -425 -3 -961 -5
-1192 -3 -446 1 -515 48 -770 31 -172 63 -294 132 -500 48 -146 56 -181 57
-245 0 -374 -446 -559 -711 -294 -58 57 -81 107 -152 324 -79 242 -127 434
-170 690 -9 52 -10 49 -11 -50 -2 -192 -31 -774 -41 -829 -58 -314 -429 -448
-677 -245 -55 45 -99 109 -125 182 -25 71 -25 128 -3 599 9 192 15 360 13 372
-2 19 -18 29 -82 52 -44 16 -80 28 -81 26 -1 -1 -12 -51 -24 -112 -28 -135
-96 -372 -151 -523 l-40 -113 0 -1385 c0 -1375 0 -1385 -21 -1446 -53 -159
-181 -271 -347 -307 -38 -8 -450 -11 -1452 -11 l-1400 0 0 -43 c0 -109 57
-204 148 -249 l47 -23 3510 0 c2947 0 3516 2 3549 14 49 17 111 73 139 125
l22 41 0 5780 0 5780 -22 41 c-25 48 -83 101 -129 120 -28 12 -360 14 -2039
14 l-2005 0 0 -1603z m2146 -1082 c95 -56 111 -186 32 -262 -58 -56 -121 -67
-194 -34 -71 32 -106 108 -90 195 20 107 152 160 252 101z m815 -226 c69 -24
119 -90 119 -159 0 -54 -20 -100 -59 -133 -89 -74 -215 -47 -262 57 -23 52
-23 90 0 141 22 49 48 73 98 91 47 16 61 17 104 3z m574 -5406 c182 -220 195
-239 189 -267 -14 -69 -59 -103 -144 -108 l-43 -3 -193 225 c-186 217 -193
226 -187 260 12 70 37 101 102 121 71 21 67 25 276 -228z m195 116 c0 -66 -4
-119 -8 -117 -10 4 -212 226 -212 233 0 3 50 5 110 5 l110 0 0 -121z m-485
-351 c49 -57 97 -113 108 -125 l20 -23 -111 0 -112 0 0 125 c0 69 2 125 3 125
2 0 44 -46 92 -102z m125 -608 l0 -171 68 3 67 3 3 168 2 167 110 0 110 0 0
-310 0 -310 -110 0 -110 0 0 130 0 130 -70 0 -70 0 0 -130 0 -130 -110 0 -110
0 0 310 0 310 110 0 110 0 0 -170z m10 -1061 l0 -312 -64 5 c-73 6 -115 27
-142 72 -17 28 -19 57 -22 289 l-3 257 115 0 116 0 0 -311z m350 1 l0 -310
-115 0 -115 0 0 310 0 310 115 0 115 0 0 -310z m-360 -740 l0 -130 100 0 100
0 0 -45 0 -45 -100 0 -100 0 0 -130 0 -130 -110 0 -110 0 0 305 0 305 110 0
110 0 0 -130z m360 65 l0 -65 -65 0 c-66 0 -126 17 -140 41 -5 7 -11 30 -15
51 l-7 38 113 0 114 0 0 -65z"/>
<path d="M9619 11171 c-48 -48 -36 -111 26 -137 74 -30 139 42 109 121 -8 19
-55 45 -84 45 -12 0 -35 -13 -51 -29z"/>
<path d="M10476 10929 c-21 -16 -26 -29 -26 -64 0 -35 5 -48 26 -64 40 -31 87
-28 118 10 28 33 32 59 14 92 -26 50 -86 62 -132 26z"/>
<path d="M12030 11742 l0 -1678 76 -74 c41 -41 108 -115 149 -165 81 -100 205
-279 205 -297 0 -6 -24 -68 -54 -137 -29 -69 -68 -166 -86 -216 -36 -104 -110
-352 -110 -372 0 -10 23 -13 105 -13 l104 0 12 43 c51 191 145 439 239 627
217 437 491 743 805 903 38 20 71 34 73 32 2 -2 -12 -31 -32 -63 -162 -268
-301 -801 -346 -1332 -5 -69 -12 -144 -14 -167 l-4 -43 104 0 c120 0 109 -13
119 140 8 127 40 378 66 520 l22 115 70 83 c221 261 531 478 795 556 l53 15
-21 -27 c-160 -211 -241 -349 -340 -582 -88 -205 -211 -587 -255 -787 l-7 -33
106 0 106 0 0 -210 0 -210 -48 0 -49 0 -6 -1184 c-5 -785 -4 -1218 3 -1287 25
-255 71 -461 170 -764 60 -184 62 -192 57 -272 -16 -274 -278 -454 -540 -373
-121 38 -216 130 -266 260 -73 187 -163 512 -204 736 l-24 129 -7 -100 c-3
-55 -13 -253 -22 -439 -17 -376 -24 -418 -89 -511 -114 -166 -334 -223 -522
-136 -125 59 -220 192 -230 325 -3 35 2 234 12 442 9 208 15 399 13 423 l-3
43 -78 29 c-55 20 -79 24 -82 16 -2 -7 -7 -25 -11 -42 -4 -16 -10 -806 -13
-1755 -6 -1616 -7 -1728 -24 -1777 -44 -131 -164 -251 -295 -295 l-67 -23
-1507 -3 -1508 -2 0 -61 c0 -73 32 -143 87 -188 79 -66 -212 -61 3638 -59
l3500 3 49 25 c54 28 91 66 117 125 18 39 19 247 19 5799 0 4385 -3 5768 -12
5798 -15 51 -77 121 -131 147 l-43 21 -1912 0 -1912 0 0 -1678z m1950 -1004
c117 -59 119 -230 5 -295 -110 -63 -255 21 -255 147 0 57 39 120 90 147 55 29
104 29 160 1z m845 -238 c36 -14 83 -71 94 -114 29 -117 -77 -232 -193 -211
-138 26 -190 191 -91 289 50 50 118 63 190 36z m551 -5396 c190 -229 196 -237
190 -273 -9 -59 -85 -111 -163 -111 -16 0 -72 59 -212 225 -204 239 -210 250
-177 313 19 38 45 59 86 70 75 21 67 28 276 -224z m194 111 l0 -125 -92 103
c-51 56 -102 112 -112 125 l-19 22 111 0 112 0 0 -125z m-479 -352 c51 -60 99
-116 107 -125 14 -17 9 -18 -96 -18 l-112 0 0 125 c0 69 2 125 4 125 3 0 46
-48 97 -107z m119 -603 l0 -170 70 0 70 0 0 170 0 170 110 0 110 0 0 -310 0
-310 -110 0 -110 0 0 130 0 131 -67 -3 -68 -3 -3 -127 -3 -128 -109 0 -110 0
0 310 0 310 110 0 110 0 0 -170z m10 -1061 l0 -312 -66 6 c-74 6 -107 24 -139
78 -18 31 -20 55 -23 287 l-4 252 116 0 116 0 0 -311z m350 1 l0 -310 -115 0
-115 0 0 310 0 310 115 0 115 0 0 -310z m-350 -740 l0 -130 95 0 95 0 0 -45 0
-45 -95 0 -95 0 0 -135 0 -135 -110 0 -110 0 0 310 0 310 110 0 110 0 0 -130z
m350 59 l0 -71 -67 7 c-116 12 -153 38 -153 104 l0 31 110 0 110 0 0 -71z"/>
<path d="M13859 10665 c-14 -8 -32 -28 -39 -45 -17 -42 5 -91 49 -110 67 -28
139 43 111 110 -12 30 -55 60 -82 60 -7 -1 -25 -7 -39 -15z"/>
<path d="M14695 10405 c-17 -16 -25 -35 -25 -60 0 -25 8 -44 25 -60 16 -17 35
-25 60 -25 25 0 44 8 60 25 17 16 25 35 25 60 0 25 -8 44 -25 60 -16 17 -35
25 -60 25 -25 0 -44 -8 -60 -25z"/>
<path d="M16250 11267 l0 -1654 124 -124 c136 -136 356 -424 356 -465 0 -5
-22 -59 -49 -119 -73 -164 -175 -465 -196 -578 l-7 -37 106 0 105 0 11 43 c64
243 183 541 301 749 189 338 414 587 670 742 71 42 149 81 149 73 0 -2 -20
-39 -45 -82 -164 -289 -289 -775 -335 -1305 -5 -69 -13 -146 -15 -172 l-6 -48
105 0 105 0 5 43 c3 23 8 78 11 122 10 124 43 378 66 500 23 124 27 130 174
284 218 228 471 393 714 465 l53 16 -26 -33 c-172 -212 -319 -494 -440 -845
-49 -145 -132 -428 -151 -519 l-7 -33 106 0 106 0 0 -210 0 -210 -52 0 -53 0
-2 -782 c-1 -431 -3 -963 -5 -1183 -2 -413 3 -501 42 -735 29 -167 62 -295
131 -507 71 -216 81 -287 54 -379 -37 -131 -113 -221 -232 -276 -197 -92 -442
-8 -540 187 -32 62 -137 394 -177 555 -19 80 -46 208 -60 285 l-24 140 -1
-130 c-2 -244 -31 -787 -47 -850 -61 -247 -343 -377 -578 -267 -130 61 -223
192 -234 329 -3 36 3 252 13 479 12 256 15 418 9 423 -9 8 -145 55 -153 53 -3
-1 -20 -65 -40 -144 l-34 -143 -6 -1640 -6 -1640 -23 -54 c-46 -108 -127 -198
-222 -246 -111 -56 -61 -55 -1648 -55 l-1463 0 7 -52 c8 -71 37 -129 84 -172
80 -72 -240 -66 3645 -64 l3500 3 53 29 c57 32 98 79 118 135 11 29 13 1134
13 5796 l1 5760 -24 51 c-27 59 -90 116 -145 132 -28 9 -532 12 -1965 12
l-1926 0 0 -1653z m2000 -1030 c51 -27 90 -90 90 -147 0 -89 -83 -170 -174
-170 -89 1 -166 79 -166 170 0 129 134 208 250 147z m812 -227 c44 -13 93 -52
113 -91 20 -37 19 -113 -2 -156 -52 -110 -220 -118 -290 -14 -75 112 -9 241
137 270 3 0 22 -4 42 -9z m586 -5409 c178 -215 193 -237 188 -265 -13 -65 -58
-101 -140 -112 l-43 -6 -189 222 -189 223 0 49 c1 41 6 54 32 79 31 31 78 49
122 46 19 -2 69 -56 219 -236z m192 112 c0 -69 -2 -124 -3 -122 -2 2 -46 51
-98 109 -52 58 -100 113 -108 123 -13 16 -7 17 98 17 l111 0 0 -127z m-484
-345 c48 -57 96 -113 107 -125 l20 -23 -111 0 -112 0 0 125 c0 69 2 125 4 125
2 0 43 -46 92 -102z m124 -608 l0 -170 70 0 70 0 0 170 0 170 110 0 110 0 0
-310 0 -310 -110 0 -110 0 0 130 0 130 -70 0 -70 0 0 -130 0 -130 -110 0 -110
0 0 310 0 310 110 0 110 0 0 -170z m10 -1060 l0 -310 -50 0 c-90 0 -148 40
-169 115 -6 23 -11 136 -11 273 l0 232 115 0 115 0 0 -310z m350 0 l0 -310
-115 0 -115 0 0 310 0 310 115 0 115 0 0 -310z m-360 -740 l0 -130 100 0 100
0 0 -45 0 -45 -100 0 -100 0 0 -135 0 -135 -105 0 -105 0 0 310 0 310 105 0
105 0 0 -130z m360 59 l0 -71 -67 7 c-116 12 -153 38 -153 104 l0 31 110 0
110 0 0 -71z"/>
<path d="M18123 10161 c-93 -57 -12 -197 85 -147 60 31 61 121 1 151 -37 19
-48 19 -86 -4z"/>
<path d="M18965 9905 c-54 -53 -16 -145 60 -145 84 0 115 104 46 157 -27 21
-79 15 -106 -12z"/>
<path d="M20520 10811 l0 -1609 68 -53 c100 -78 234 -211 323 -322 74 -92 194
-261 205 -291 3 -7 -22 -76 -54 -152 -84 -196 -192 -524 -192 -581 0 -10 28
-13 105 -13 l104 0 11 43 c28 110 118 365 177 499 213 485 518 849 857 1027
43 23 80 40 83 38 2 -3 -10 -27 -27 -55 -182 -296 -310 -817 -364 -1479 l-6
-73 104 0 105 0 5 53 c3 28 10 106 16 172 13 141 44 357 66 470 14 71 22 87
69 145 67 81 218 229 310 302 156 124 338 222 502 271 l52 16 -73 -97 c-165
-219 -283 -461 -406 -830 -56 -167 -140 -461 -140 -489 0 -10 26 -13 105 -13
l105 0 0 -210 0 -210 -52 0 -53 0 -2 -782 c-1 -431 -3 -961 -5 -1178 -4 -590
25 -798 182 -1283 65 -203 70 -243 45 -342 -22 -81 -60 -148 -117 -201 -145
-136 -368 -151 -529 -35 -99 71 -123 114 -207 371 -70 216 -123 423 -156 616
l-24 139 -1 -125 c-1 -190 -30 -779 -41 -833 -16 -77 -59 -153 -120 -211 -90
-86 -171 -118 -295 -117 -219 1 -392 167 -403 388 -3 46 3 251 13 456 9 204
15 385 13 401 -3 26 -10 31 -81 56 -52 18 -80 24 -82 16 -1 -6 -20 -83 -40
-171 -20 -88 -64 -241 -96 -339 l-59 -180 0 -1406 c0 -1531 3 -1456 -56 -1572
-36 -71 -113 -149 -184 -187 -118 -63 -57 -61 -1599 -61 l-1404 0 7 -52 c4
-28 13 -66 20 -83 19 -46 73 -103 120 -128 l41 -22 3525 0 3525 0 53 29 c59
33 97 77 118 139 12 36 14 816 12 5807 l-3 5765 -22 40 c-28 52 -68 89 -123
114 -45 20 -55 21 -2037 21 l-1993 0 0 -1609z m2120 -1074 c51 -27 90 -90 90
-147 0 -20 -10 -56 -23 -80 -58 -109 -217 -119 -289 -18 -33 47 -33 149 0 196
50 70 144 91 222 49z m812 -227 c78 -22 128 -87 128 -166 0 -96 -71 -168 -165
-168 -155 0 -231 185 -119 290 27 26 65 43 114 53 3 0 22 -4 42 -9z m583
-5407 c180 -217 196 -240 191 -267 -14 -68 -66 -107 -144 -110 l-45 -1 -188
220 c-162 189 -188 225 -189 253 0 68 38 117 105 133 69 16 64 21 270 -228z
m195 110 c0 -72 -4 -123 -9 -117 -114 125 -211 235 -211 239 0 3 50 5 110 5
l110 0 0 -127z m-485 -345 c49 -57 97 -113 108 -125 l20 -23 -111 0 -112 0 0
125 c0 69 2 125 3 125 2 0 44 -46 92 -102z m125 -608 l0 -170 70 0 70 0 0 170
0 170 110 0 110 0 0 -310 0 -310 -110 0 -110 0 0 130 0 130 -70 0 -70 0 0
-130 0 -130 -110 0 -110 0 0 310 0 310 110 0 110 0 0 -170z m10 -1060 l0 -310
-52 0 c-65 0 -127 29 -153 72 -18 30 -20 55 -23 291 l-3 257 115 0 116 0 0
-310z m350 0 l0 -310 -115 0 -115 0 0 310 0 310 115 0 115 0 0 -310z m-360
-740 l0 -130 100 0 100 0 0 -45 0 -45 -100 0 -100 0 0 -135 0 -135 -105 0
-105 0 0 310 0 310 105 0 105 0 0 -130z m360 59 l0 -71 -72 7 c-111 11 -148
37 -148 104 l0 31 110 0 110 0 0 -71z"/>
<path d="M22524 9670 c-12 -5 -29 -19 -38 -32 -51 -72 33 -165 112 -124 60 31
60 121 1 151 -31 17 -44 18 -75 5z"/>
<path d="M23355 9405 c-54 -53 -16 -145 60 -145 83 0 114 105 46 157 -27 21
-79 15 -106 -12z"/>
<path d="M24910 10279 l0 -1642 110 -104 c61 -58 146 -150 190 -204 75 -94
195 -263 206 -293 3 -7 -22 -76 -54 -152 -84 -196 -192 -524 -192 -581 0 -10
28 -13 105 -13 l104 0 11 43 c28 110 118 365 177 499 213 485 518 849 857
1027 43 23 80 40 83 38 2 -3 -10 -27 -27 -55 -182 -296 -310 -817 -364 -1479
l-6 -73 104 0 105 0 5 53 c3 28 10 106 16 172 13 141 44 357 66 470 14 71 22
87 69 145 67 81 218 229 310 302 156 124 338 222 502 271 l52 16 -73 -97
c-165 -219 -283 -461 -406 -830 -56 -167 -140 -461 -140 -489 0 -10 26 -13
105 -13 l105 0 0 -210 0 -210 -52 0 -53 0 -2 -782 c-1 -431 -3 -961 -5 -1178
-4 -590 25 -798 182 -1283 65 -203 70 -243 45 -342 -22 -81 -60 -148 -117
-201 -145 -136 -368 -151 -529 -35 -99 71 -123 114 -207 371 -70 216 -123 423
-156 616 l-24 139 -1 -125 c-1 -190 -30 -779 -41 -833 -16 -77 -59 -153 -120
-211 -90 -86 -171 -118 -295 -117 -219 1 -392 167 -403 388 -3 46 3 251 13
456 9 204 15 385 13 401 -3 26 -10 31 -81 56 -52 18 -79 24 -81 16 -2 -6 -26
-106 -55 -221 l-51 -211 0 -1535 c0 -1690 4 -1588 -62 -1711 -36 -68 -119
-148 -191 -184 -108 -55 -64 -54 -1631 -54 l-1449 0 7 -52 c4 -28 13 -66 20
-83 19 -46 73 -103 120 -128 l41 -22 3525 0 3525 0 53 29 c59 33 97 77 118
139 12 36 14 816 12 5807 l-3 5765 -22 40 c-28 52 -68 89 -123 114 -45 20 -55
21 -1992 21 l-1948 0 0 -1641z m2030 -1042 c51 -27 90 -90 90 -147 0 -20 -10
-56 -23 -80 -58 -109 -217 -119 -289 -18 -33 47 -33 149 0 196 50 70 144 91
222 49z m812 -227 c78 -22 128 -87 128 -166 0 -96 -71 -168 -165 -168 -155 0
-231 185 -119 290 27 26 65 43 114 53 3 0 22 -4 42 -9z m583 -5407 c180 -217
196 -240 191 -267 -14 -68 -66 -107 -144 -110 l-45 -1 -188 220 c-162 189
-188 225 -189 253 0 68 38 117 105 133 69 16 64 21 270 -228z m195 110 c0 -72
-4 -123 -9 -117 -114 125 -211 235 -211 239 0 3 50 5 110 5 l110 0 0 -127z
m-485 -345 c49 -57 97 -113 108 -125 l20 -23 -111 0 -112 0 0 125 c0 69 2 125
3 125 2 0 44 -46 92 -102z m125 -608 l0 -170 70 0 70 0 0 170 0 170 110 0 110
0 0 -310 0 -310 -110 0 -110 0 0 130 0 130 -70 0 -70 0 0 -130 0 -130 -110 0
-110 0 0 310 0 310 110 0 110 0 0 -170z m10 -1060 l0 -310 -52 0 c-65 0 -127
29 -153 72 -18 30 -20 55 -23 291 l-3 257 115 0 116 0 0 -310z m350 0 l0 -310
-115 0 -115 0 0 310 0 310 115 0 115 0 0 -310z m-360 -740 l0 -130 100 0 100
0 0 -45 0 -45 -100 0 -100 0 0 -135 0 -135 -105 0 -105 0 0 310 0 310 105 0
105 0 0 -130z m360 59 l0 -71 -72 7 c-111 11 -148 37 -148 104 l0 31 110 0
110 0 0 -71z"/>
<path d="M26824 9170 c-12 -5 -29 -19 -38 -32 -51 -72 33 -165 112 -124 60 31
60 121 1 151 -31 17 -44 18 -75 5z"/>
<path d="M27655 8905 c-54 -53 -16 -145 60 -145 83 0 114 105 46 157 -27 21
-79 15 -106 -12z"/>
<path d="M7620 9772 l0 -462 100 0 c97 0 100 1 100 23 0 43 -51 332 -86 491
-33 146 -100 395 -110 405 -2 2 -4 -203 -4 -457z"/>
<path d="M7620 9100 l0 -120 1020 0 1020 0 0 120 0 120 -1020 0 -1020 0 0
-120z"/>
<path d="M12030 8580 l0 -120 930 0 930 0 0 120 0 120 -930 0 -930 0 0 -120z"/>
<path d="M20521 8223 l-1 -433 94 0 93 0 -18 123 c-26 165 -64 354 -104 517
-67 264 -63 277 -64 -207z"/>
<path d="M8255 8514 c-174 -29 -350 -127 -450 -252 -105 -133 -155 -276 -155
-447 0 -218 87 -405 251 -542 60 -49 209 -125 279 -141 133 -32 294 -21 422
28 153 57 298 192 374 345 101 204 100 418 -2 625 -39 79 -62 109 -133 180
-94 93 -174 142 -296 180 -69 21 -226 34 -290 24z m-85 -697 c129 -66 150
-256 37 -352 -144 -124 -356 -26 -357 164 0 100 56 176 152 207 53 17 109 10
168 -19z"/>
<path d="M16250 8080 l0 -120 955 0 955 0 0 120 0 120 -955 0 -955 0 0 -120z"/>
<path d="M12462 7989 c-135 -21 -262 -84 -369 -183 l-63 -58 0 -453 0 -453 68
-64 c76 -72 192 -137 292 -164 89 -24 272 -25 358 -1 143 39 294 139 378 250
101 134 144 264 144 431 0 126 -19 207 -72 316 -34 68 -60 103 -133 176 -74
75 -105 99 -175 133 -47 22 -112 48 -145 56 -79 20 -204 26 -283 14z m-72
-693 c54 -26 104 -95 114 -156 20 -128 -86 -250 -218 -250 -187 0 -286 229
-158 363 72 76 164 91 262 43z"/>
<path d="M24911 7553 l-1 -263 49 0 48 0 -19 126 c-10 69 -32 187 -48 262
l-28 137 -1 -262z"/>
<path d="M20520 7580 l0 -120 1015 0 1015 0 0 120 0 120 -1015 0 -1015 0 0
-120z"/>
<path d="M16735 7489 c-175 -27 -357 -136 -457 -273 l-28 -39 0 -386 1 -386
47 -57 c68 -81 135 -133 237 -183 201 -99 409 -99 610 0 181 89 303 229 367
420 20 60 23 90 23 210 0 127 -3 147 -28 220 -78 223 -272 405 -490 459 -77
20 -208 27 -282 15z m-77 -691 c120 -56 153 -224 64 -328 -133 -156 -382 -68
-382 135 0 66 27 123 80 168 69 58 148 67 238 25z"/>
<path d="M24910 7080 l0 -120 970 0 970 0 0 120 0 120 -970 0 -970 0 0 -120z"/>
<path d="M21125 6989 c-153 -23 -271 -84 -385 -199 -146 -146 -199 -265 -207
-465 -8 -185 34 -321 142 -461 126 -164 349 -274 555 -274 147 0 337 69 445
162 239 204 321 531 203 811 -83 197 -271 361 -471 411 -77 20 -208 27 -282
15z m-77 -691 c103 -48 145 -187 90 -293 -83 -157 -314 -151 -389 10 -40 87
-15 192 61 258 69 58 148 67 238 25z"/>
<path d="M25425 6489 c-187 -29 -370 -144 -476 -300 l-39 -58 0 -336 0 -337
37 -55 c125 -188 357 -313 583 -313 147 0 337 69 445 162 239 204 321 531 203
811 -83 197 -271 361 -471 411 -77 20 -208 27 -282 15z m-77 -691 c103 -48
145 -187 90 -293 -83 -157 -314 -151 -389 10 -40 87 -15 192 61 258 69 58 148
67 238 25z"/>
</g>
</svg>
