<?xml version="1.0" standalone="no"?>
<!DOCTYPE svg PUBLIC "-//W3C//DTD SVG 20010904//EN"
 "http://www.w3.org/TR/2001/REC-SVG-20010904/DTD/svg10.dtd">
<svg version="1.0" xmlns="http://www.w3.org/2000/svg"
 width="960.000000pt" height="484.000000pt" viewBox="0 0 960.000000 484.000000"
 preserveAspectRatio="xMidYMid meet">

<g transform="translate(0.000000,484.000000) scale(0.100000,-0.100000)"
fill="#000000" stroke="none">
<path d="M7271 4664 c-120 -60 -157 -213 -77 -317 45 -59 98 -87 168 -87 70 0
103 12 147 53 72 68 89 162 47 252 -27 59 -46 77 -106 104 -62 28 -115 26
-179 -5z"/>
<path d="M2089 4572 c-145 -75 -154 -279 -17 -369 55 -37 148 -44 204 -15 169
87 164 325 -8 396 -57 24 -118 20 -179 -12z"/>
<path d="M6935 4325 c-170 -64 -398 -179 -555 -283 -450 -296 -857 -739 -1200
-1307 -320 -530 -604 -1219 -760 -1845 -11 -47 -23 -93 -26 -102 -5 -17 43
-18 905 -18 l911 0 0 23 c0 35 19 288 36 467 95 1049 309 1928 612 2520 68
134 164 286 243 387 l49 63 -34 50 c-19 28 -38 59 -41 70 -4 11 -9 20 -13 20
-4 -1 -61 -21 -127 -45z"/>
<path d="M2472 4252 c-12 -26 -27 -55 -34 -64 -11 -16 -4 -26 53 -85 260 -266
521 -749 719 -1328 182 -533 348 -1269 437 -1940 l8 -60 317 -3 316 -2 12 52
c96 420 287 965 487 1391 l55 118 -52 87 c-334 551 -721 1005 -1131 1323 -310
242 -685 434 -1020 522 -157 42 -142 43 -167 -11z"/>
<path d="M9110 4210 c-122 -23 -196 -136 -169 -261 20 -91 116 -169 208 -169
75 0 156 52 190 123 76 158 -59 339 -229 307z"/>
<path d="M585 4100 c-111 -34 -175 -178 -129 -288 46 -112 187 -167 292 -113
110 56 151 198 89 304 -48 82 -161 125 -252 97z"/>
<path d="M8745 3943 c-11 -2 -66 -13 -123 -24 -705 -139 -1408 -610 -2012
-1350 l-87 -107 -32 -164 c-75 -397 -140 -915 -166 -1318 -3 -52 -8 -121 -11
-152 l-6 -58 561 0 560 0 10 38 c5 20 31 120 57 222 274 1083 650 1952 1073
2477 43 54 131 148 194 210 l116 112 -19 43 c-11 24 -20 51 -20 61 0 13 -8 17
-37 16 -21 -1 -47 -3 -58 -6z"/>
<path d="M961 3828 c-6 -29 -18 -63 -25 -76 -12 -22 -7 -29 89 -125 325 -328
615 -827 877 -1512 120 -312 271 -795 358 -1145 17 -69 36 -142 41 -162 l10
-38 621 0 621 0 -7 53 c-19 151 -83 532 -127 755 -45 230 -172 761 -197 822
-32 81 -450 530 -667 718 -451 389 -941 643 -1434 741 -149 30 -146 31 -160
-31z"/>
<path d="M2110 385 l0 -285 2730 0 2730 0 0 285 0 285 -2730 0 -2730 0 0 -285z"/>
</g>
</svg>
