<?xml version="1.0" standalone="no"?>
<!DOCTYPE svg PUBLIC "-//W3C//DTD SVG 20010904//EN"
 "http://www.w3.org/TR/2001/REC-SVG-20010904/DTD/svg10.dtd">
<svg version="1.0" xmlns="http://www.w3.org/2000/svg"
 width="1600.000000pt" height="988.000000pt" viewBox="0 0 1600.000000 988.000000"
 preserveAspectRatio="xMidYMid meet">
<metadata>
Created by potrace 1.15, written by Peter Selinger 2001-2017
</metadata>
<g transform="translate(0.000000,988.000000) scale(0.100000,-0.100000)"
fill="#000000" stroke="none">
<path d="M1380 7657 c0 -5 -4 -5 -10 -2 -5 3 -10 1 -10 -4 0 -6 -3 -10 -7 -8
-10 3 -59 -46 -55 -55 1 -5 -3 -8 -9 -8 -5 0 -7 -4 -4 -10 3 -5 1 -10 -5 -10
-6 0 -10 -6 -9 -12 4 -30 -2 -43 -11 -23 -7 18 -10 16 -26 -20 -18 -38 -19
-118 -22 -2064 -1 -1334 1 -2036 8 -2061 16 -61 65 -119 123 -146 l52 -24
1445 0 c1345 0 1448 1 1493 17 61 22 122 86 137 144 9 33 12 557 12 2065 0
1895 -2 2024 -18 2055 -9 19 -25 40 -36 47 -10 7 -16 18 -13 23 4 5 1 9 -5 9
-6 0 -8 5 -5 10 3 6 2 10 -2 10 -5 0 -13 10 -18 23 -6 12 -16 21 -23 19 -7 -1
-12 2 -12 7 0 5 -8 12 -18 15 -29 10 -2952 12 -2952 3z m3058 -2282 l-3 -1970
-22 -42 c-23 -43 -60 -75 -108 -93 -41 -15 -2863 -14 -2915 1 -47 14 -84 47
-110 99 -20 39 -20 57 -18 2052 l3 2013 5 -1975 c5 -1970 5 -1975 26 -2010 11
-19 35 -45 54 -57 l33 -23 1460 0 1459 0 39 22 c25 14 46 37 59 63 20 41 20
63 21 2056 1 1216 5 1978 10 1924 5 -49 8 -976 7 -2060z m-443 2019 c22 -8 46
-16 54 -17 21 -3 58 -40 53 -54 -2 -7 3 -13 11 -13 11 0 13 -6 9 -22 -3 -11
-1 -19 4 -16 5 4 9 -100 9 -252 0 -142 -3 -256 -6 -254 -9 5 -21 -25 -14 -36
3 -4 -2 -11 -11 -14 -9 -4 -14 -9 -11 -13 9 -9 -13 -34 -24 -27 -5 3 -12 -2
-15 -10 -3 -9 -10 -13 -15 -10 -5 3 -9 1 -9 -5 0 -6 -7 -8 -15 -5 -8 4 -15 1
-15 -6 0 -7 -7 -10 -15 -6 -9 3 -533 6 -1166 6 -731 1 -1148 4 -1144 10 6 9
-16 15 -38 11 -5 -1 -6 2 -3 7 7 12 -38 54 -48 45 -4 -5 -7 -3 -6 2 1 6 1 13
0 18 -5 15 -8 27 -9 45 -1 11 -4 13 -9 5 -6 -10 -6 107 1 379 1 53 -1 94 -5
91 -5 -2 -8 1 -8 6 0 6 5 11 11 11 6 0 9 7 5 15 -3 8 -1 15 5 15 6 0 7 5 4 10
-3 6 0 10 8 10 14 0 32 27 29 42 -1 4 5 5 13 2 9 -4 15 0 15 10 0 10 5 13 17
9 11 -4 14 -3 9 5 -5 8 -2 10 8 6 9 -3 16 -1 16 5 0 7 332 10 1133 10 992 0
1137 -2 1172 -15z m-29 -975 c3 -6 15 -9 25 -6 10 3 22 1 25 -4 3 -5 8 -7 12
-5 4 2 29 -18 56 -45 27 -27 45 -49 41 -49 -4 0 -3 -6 3 -13 14 -16 14 -527 0
-527 -5 0 -6 -4 -3 -10 3 -5 1 -10 -6 -10 -7 0 -10 -3 -6 -6 9 -9 -78 -80
-107 -88 -39 -10 -2296 -12 -2296 -2 0 4 -9 6 -20 3 -11 -3 -20 -1 -20 5 0 5
-4 6 -10 3 -5 -3 -10 -1 -10 5 0 6 -3 10 -7 8 -8 -4 -68 53 -65 62 3 10 -10
50 -17 50 -3 0 -6 110 -6 245 0 135 4 245 9 245 4 0 6 7 2 15 -3 8 -1 15 5 15
6 0 8 4 5 9 -3 5 1 12 9 15 8 3 14 11 13 17 -2 7 15 21 37 33 22 12 41 24 43
27 2 4 11 5 21 2 10 -3 22 0 25 6 10 16 2232 16 2242 0z m25 -994 c5 -4 14 -3
19 0 6 3 10 1 10 -5 0 -6 5 -8 10 -5 6 3 10 1 10 -6 0 -7 2 -10 5 -7 8 7 72
-55 67 -64 -2 -5 2 -8 8 -8 6 0 9 -4 5 -9 -3 -5 -1 -12 4 -15 13 -8 13 -514 0
-522 -5 -3 -7 -10 -4 -15 4 -5 1 -9 -5 -9 -6 0 -10 -3 -8 -7 5 -10 -59 -72
-67 -65 -3 3 -5 0 -5 -7 0 -7 -4 -9 -10 -6 -5 3 -10 2 -10 -3 0 -6 -9 -8 -20
-5 -11 3 -20 0 -20 -6 0 -14 -2257 -16 -2262 -2 -1 5 -16 11 -33 13 -16 1 -35
10 -42 18 -7 8 -13 11 -13 6 0 -14 -40 26 -40 41 0 7 -5 13 -11 13 -5 0 -7 5
-4 10 3 6 2 10 -4 10 -6 0 -8 7 -5 15 4 8 2 15 -2 15 -5 0 -9 110 -9 245 0
135 4 245 9 245 4 0 6 7 2 15 -3 8 -1 15 5 15 6 0 7 5 4 10 -3 6 -1 10 4 10 6
0 11 5 11 10 0 6 9 19 20 30 11 11 25 20 30 20 6 0 10 5 10 11 0 5 3 8 8 6 4
-3 20 0 35 6 21 9 323 11 1158 10 622 -2 1135 -5 1140 -8z m7 -986 c1 -1 7 -3
12 -4 6 -1 12 -4 15 -5 3 -1 9 -3 13 -4 14 -2 81 -74 74 -80 -3 -3 0 -6 7 -6
7 0 9 -4 6 -10 -3 -5 -2 -10 4 -10 13 0 13 -517 0 -526 -5 -3 -7 -10 -4 -15 4
-5 1 -9 -4 -9 -6 0 -11 -4 -11 -10 0 -13 -48 -59 -54 -53 -3 3 -8 -1 -12 -10
-3 -9 -12 -13 -20 -10 -8 3 -14 0 -14 -6 0 -7 -334 -11 -1166 -11 -882 0
-1163 3 -1158 12 5 8 2 9 -9 5 -10 -3 -17 -2 -17 4 0 6 -4 8 -9 5 -5 -3 -12 1
-15 10 -3 8 -10 12 -16 9 -5 -3 -14 5 -20 19 -5 14 -14 26 -20 26 -6 0 -8 5
-5 10 3 6 2 10 -4 10 -6 0 -8 7 -5 15 4 8 2 15 -2 15 -7 0 -10 478 -3 500 1 3
1 8 0 13 0 4 4 7 10 7 5 0 7 5 4 10 -3 6 -1 10 6 10 7 0 10 3 7 6 -7 7 44 60
55 56 4 -1 7 3 7 9 0 5 5 7 10 4 6 -3 10 -2 10 3 0 6 9 8 20 5 11 -3 20 -1 20
3 0 7 2275 9 2288 3z"/>
<path d="M6533 7657 c-2 -4 -9 -5 -14 -2 -5 4 -9 1 -9 -4 0 -6 -6 -11 -13 -11
-8 0 -24 -12 -38 -27 -13 -14 -17 -23 -9 -19 12 6 12 5 -1 -6 -9 -7 -14 -19
-11 -27 2 -8 1 -11 -4 -8 -5 3 -8 -584 -6 -1379 1 -961 -1 -1384 -8 -1384 -8
0 -10 420 -10 1371 1 754 -1 1373 -3 1375 -2 3 -13 -14 -23 -38 -18 -41 -19
-87 -22 -875 l-3 -832 -32 17 c-18 9 -34 19 -37 22 -3 3 -27 19 -55 35 -27 16
-56 35 -63 42 -7 7 -18 13 -23 13 -9 0 -67 37 -79 51 -3 3 -20 11 -37 18 -18
8 -33 17 -33 22 0 5 -6 9 -14 9 -8 0 -21 6 -28 13 -18 18 -123 77 -137 77 -7
0 -11 -35 -11 -111 l0 -111 -58 4 c-74 5 -141 38 -202 98 -69 70 -90 121 -101
243 -18 204 -70 328 -189 448 -85 85 -172 136 -290 168 -59 17 -104 21 -217
21 l-143 0 0 -140 0 -140 98 0 c181 0 265 -26 348 -106 25 -25 57 -70 72 -102
l27 -57 6 -500 c5 -479 7 -503 28 -580 24 -85 83 -210 133 -283 40 -58 132
-150 191 -190 67 -47 199 -110 259 -126 l53 -13 3 -117 c2 -76 6 -116 14 -116
13 0 118 59 136 77 7 7 20 13 28 13 8 0 14 4 14 9 0 5 15 14 33 22 17 7 34 15
37 18 12 14 70 51 79 51 5 0 16 6 23 13 7 7 36 26 63 42 28 16 52 32 55 36 3
3 15 9 27 13 l22 7 3 -658 c3 -652 3 -658 25 -698 30 -57 52 -80 103 -107 l45
-23 1450 -3 c1587 -3 1501 -6 1572 56 17 15 42 47 55 72 l23 45 0 2035 c0
1922 -1 2037 -18 2074 -9 22 -20 37 -23 34 -3 -3 -5 -924 -4 -2047 0 -1418 -3
-2054 -10 -2082 -14 -52 -60 -103 -111 -123 -37 -15 -172 -17 -1469 -16 -1294
0 -1433 1 -1469 16 -50 20 -96 71 -110 121 -14 50 -15 1343 -1 1343 6 0 11
-230 12 -637 l3 -638 22 -31 c49 -69 -67 -64 1555 -62 l1463 3 31 22 c69 49
64 -127 66 2126 2 1169 -1 2033 -6 2030 -5 -3 -6 0 -4 8 3 8 -2 20 -11 27 -13
11 -13 12 -1 6 8 -4 4 5 -9 19 -14 15 -30 27 -38 27 -7 0 -13 5 -13 11 0 5 -4
7 -10 4 -5 -3 -10 -3 -10 2 0 10 -2930 11 -2937 0z m2656 -337 c48 -24 87 -70
101 -118 14 -51 13 -460 -1 -503 -18 -53 -58 -99 -103 -120 -39 -18 -89 -19
-1186 -19 -1090 0 -1147 1 -1185 19 -50 22 -91 69 -105 119 -5 20 -10 134 -10
252 0 118 5 232 10 252 13 47 52 93 99 118 35 19 72 19 1189 20 1125 0 1154 0
1191 -20z m-69 -899 c0 -13 40 -21 41 -8 0 8 2 8 6 -1 2 -6 9 -10 14 -6 5 3 9
0 9 -6 0 -6 4 -9 8 -6 4 2 18 -11 31 -30 13 -18 28 -31 34 -27 6 4 7 1 3 -6
-5 -7 0 -19 10 -27 11 -9 12 -12 4 -8 -13 7 -13 5 -2 -8 18 -22 19 -482 1
-504 -6 -7 -9 -21 -5 -29 3 -9 0 -15 -10 -15 -10 0 -14 -6 -11 -14 3 -8 -3
-22 -14 -32 -10 -9 -19 -13 -19 -8 0 5 -6 2 -13 -6 -7 -8 -18 -15 -24 -16 -7
-1 -22 -2 -34 -2 -11 -1 -18 -5 -16 -9 3 -5 -507 -8 -1133 -8 -626 0 -1136 3
-1133 8 4 6 -37 12 -59 8 -5 0 -7 5 -5 12 1 6 -6 12 -15 12 -22 0 -43 21 -43
43 0 9 -5 16 -12 15 -7 -2 -10 4 -7 12 4 9 1 22 -5 29 -18 22 -17 482 1 504
11 13 11 15 -2 8 -8 -4 -7 -1 4 8 10 8 15 20 10 27 -4 7 -3 10 3 6 6 -4 21 9
34 27 13 19 28 32 33 29 5 -3 15 2 23 12 7 11 13 14 13 8 0 -6 9 -9 20 -6 11
3 20 9 20 14 0 5 479 9 1120 9 641 0 1120 -4 1120 -9z m-3455 -806 c39 -8 87
-15 108 -15 l37 0 0 -110 c0 -75 4 -110 11 -110 14 0 119 59 137 77 7 7 20 13
28 13 8 0 14 4 14 9 0 5 15 14 33 22 17 7 34 15 37 18 12 14 70 51 79 51 5 0
16 6 23 13 7 7 36 26 63 42 28 16 52 32 55 35 3 3 20 13 38 22 l32 17 0 -435
0 -435 -22 7 c-13 4 -25 10 -28 13 -3 4 -27 20 -55 36 -27 16 -56 35 -63 42
-7 7 -18 13 -23 13 -9 0 -67 37 -79 51 -3 3 -20 11 -37 18 -18 8 -33 17 -33
22 0 5 -6 9 -14 9 -8 0 -21 6 -28 13 -18 18 -123 77 -137 77 -7 0 -11 -32 -11
-100 0 -67 -4 -100 -11 -100 -32 0 -142 73 -204 135 -131 131 -165 228 -165
472 l0 162 73 -35 c40 -19 104 -41 142 -49z m3538 -208 c35 -21 53 -41 70 -75
21 -45 22 -59 22 -292 0 -243 0 -245 -25 -288 -15 -27 -42 -54 -70 -70 l-45
-27 -1155 0 -1155 0 -45 27 c-28 16 -55 43 -70 70 -25 43 -25 45 -25 293 0
239 1 252 22 291 22 42 69 79 121 94 15 5 540 8 1167 7 l1140 -2 48 -28z m8
-992 c78 -55 84 -77 87 -337 2 -143 -1 -242 -8 -268 -13 -49 -63 -108 -107
-126 -48 -21 -2318 -21 -2366 0 -43 17 -93 76 -106 123 -15 54 -14 455 1 507
15 49 75 112 120 125 20 6 476 9 1185 8 l1151 -2 43 -30z"/>
<path d="M7443 6413 c306 -2 808 -2 1115 0 306 1 55 2 -558 2 -613 0 -864 -1
-557 -2z"/>
<path d="M11672 7656 c-9 -5 -20 -14 -24 -20 -4 -6 -8 -7 -8 -2 0 5 -7 3 -15
-4 -8 -7 -12 -16 -9 -21 3 -5 -2 -12 -10 -15 -9 -3 -13 -10 -10 -15 3 -5 0 -9
-6 -9 -6 0 -9 -4 -5 -10 3 -5 -5 -16 -18 -25 -13 -8 -29 -33 -36 -55 -17 -57
-18 -4048 -1 -4112 15 -55 89 -128 146 -146 32 -9 370 -12 1485 -12 1403 0
1445 1 1486 20 66 29 120 92 133 154 7 35 9 672 8 2066 l-3 2015 -22 40 c-16
29 -22 34 -23 20 0 -16 -2 -17 -9 -6 -5 8 -7 20 -4 28 3 7 0 13 -7 13 -6 0 -8
5 -5 10 3 6 1 10 -4 10 -6 0 -10 3 -9 8 4 9 -45 58 -54 54 -5 -1 -8 3 -8 9 0
5 -4 7 -10 4 -5 -3 -10 -3 -10 2 0 11 -2927 10 -2948 -1z m-68 -4213 c11 -17
36 -41 56 -52 l38 -21 1459 0 1460 0 33 23 c19 12 43 38 54 57 21 35 21 40 26
2015 l5 1980 2 -2015 c2 -1943 2 -2016 -16 -2055 -22 -47 -64 -89 -104 -104
-20 -8 -466 -11 -1463 -11 -1276 0 -1438 1 -1471 15 -48 20 -70 41 -97 90
l-21 40 -3 1925 c-2 1059 0 1986 5 2060 5 80 10 -690 13 -1890 5 -1971 6
-2026 24 -2057z m2711 3887 c4 -6 11 -8 16 -5 5 4 9 1 9 -5 0 -6 3 -10 8 -8 9
5 81 -70 74 -77 -3 -3 0 -5 6 -5 6 0 9 -7 6 -15 -4 -8 -2 -15 2 -15 5 0 9
-112 9 -250 0 -137 -3 -250 -6 -250 -4 0 -9 -10 -13 -23 -7 -29 -87 -105 -104
-99 -6 2 -12 0 -12 -5 0 -4 -520 -8 -1155 -8 -635 0 -1155 4 -1155 9 0 4 -7 6
-15 2 -8 -3 -15 -1 -15 5 0 6 -4 8 -9 5 -5 -3 -12 1 -15 9 -3 8 -11 14 -18 13
-6 -2 -20 15 -31 37 -11 22 -23 42 -27 45 -11 7 -11 520 0 520 6 0 20 31 23
50 1 8 47 50 47 43 0 -3 6 0 13 6 8 6 31 15 53 20 54 13 2301 13 2309 1z m21
-952 c30 -14 84 -64 84 -79 0 -5 4 -9 10 -9 5 0 7 -7 4 -15 -4 -8 -2 -15 2
-15 5 0 9 -112 9 -250 0 -137 -3 -250 -7 -250 -3 0 -9 -13 -13 -30 -4 -16 -10
-30 -13 -30 -4 0 -24 -16 -44 -36 -21 -19 -38 -32 -38 -29 0 3 -4 4 -9 0 -8
-4 -2312 -8 -2331 -4 -3 1 -8 1 -12 0 -5 0 -8 4 -8 10 0 5 -4 7 -10 4 -5 -3
-10 -1 -10 4 0 6 -6 11 -13 11 -13 0 -54 38 -50 46 4 9 -10 44 -17 44 -5 0 -9
117 -9 260 0 143 4 260 9 260 8 0 24 37 22 50 -1 10 32 40 45 40 7 0 13 5 13
11 0 5 5 7 10 4 6 -3 10 -1 10 5 0 6 4 9 9 5 5 -3 12 -2 14 2 3 5 525 7 1160
6 897 -2 1161 -5 1183 -15z m-26 -979 c0 -6 7 -9 15 -5 8 3 15 0 15 -6 0 -6 3
-9 6 -5 4 3 15 -4 26 -16 11 -12 16 -16 12 -8 -5 9 -3 12 4 7 7 -4 12 -14 12
-22 0 -8 7 -17 15 -20 8 -4 12 -10 9 -15 -3 -5 -1 -9 5 -9 6 0 8 -7 5 -15 -4
-8 -2 -15 2 -15 5 0 8 -110 7 -245 -2 -198 -6 -251 -18 -275 -9 -17 -13 -30
-11 -30 3 0 -7 -13 -22 -28 -15 -15 -30 -27 -34 -25 -3 2 -14 -4 -22 -13 -9
-8 -16 -13 -16 -9 0 3 -4 4 -9 0 -15 -9 -2311 -11 -2311 -1 0 4 -7 6 -15 2 -8
-3 -15 -1 -15 5 0 6 -4 7 -10 4 -5 -3 -10 -1 -10 5 0 6 -11 15 -25 20 -14 5
-24 13 -23 17 2 12 -24 63 -33 63 -4 0 -8 117 -8 260 0 173 4 260 11 260 5 0
8 6 5 14 -3 8 1 17 9 20 9 3 14 9 11 13 -3 7 44 60 50 56 8 -4 43 11 43 18 0
5 521 9 1160 9 825 0 1160 -4 1160 -11z m3 -960 c51 -14 102 -61 122 -112 13
-36 16 -81 13 -288 l-3 -246 -28 -40 c-15 -22 -45 -49 -66 -61 l-39 -22 -1159
0 c-1109 0 -1160 1 -1193 19 -19 10 -48 35 -65 55 l-30 38 -3 261 c-2 175 1
269 8 287 15 36 78 95 115 108 42 15 2276 16 2328 1z"/>
<path d="M10910 4305 c0 -92 -3 -127 -12 -129 -102 -31 -135 -43 -203 -78
-229 -116 -384 -314 -450 -577 -9 -34 -20 -122 -25 -195 -14 -205 -62 -312
-197 -435 -118 -109 -242 -151 -445 -151 l-118 0 0 -147 0 -146 148 6 c95 4
176 13 230 27 129 31 273 104 355 179 l29 26 -4 -230 c-4 -204 -7 -238 -27
-300 -38 -115 -97 -219 -174 -301 -147 -157 -292 -231 -509 -259 l-48 -6 0
-141 0 -141 78 6 c186 15 419 110 572 235 182 147 314 360 372 600 20 82 21
124 27 702 l6 615 24 60 c54 136 158 255 280 319 38 20 74 36 80 36 7 0 11
-31 11 -90 0 -60 4 -90 11 -90 14 0 119 59 137 77 7 7 20 13 28 13 8 0 14 4
14 9 0 5 15 14 33 22 17 7 34 15 37 18 12 14 70 51 79 51 5 0 16 6 23 13 7 7
36 26 63 42 28 16 52 32 55 35 7 8 61 38 93 52 17 8 27 20 27 33 0 13 -10 25
-27 33 -32 14 -86 44 -93 52 -3 3 -27 19 -55 35 -27 16 -56 35 -63 42 -7 7
-18 13 -23 13 -9 0 -67 37 -79 51 -3 3 -20 11 -37 18 -18 8 -33 17 -33 22 0 5
-6 9 -14 9 -8 0 -21 6 -28 13 -18 18 -123 77 -137 77 -7 0 -11 -39 -11 -125z"/>
<path d="M1665 2976 c-42 -18 -103 -89 -110 -128 -3 -18 -5 -141 -3 -274 l3
-241 27 -40 c16 -24 44 -49 70 -62 l44 -21 1153 0 c1130 0 1153 0 1191 20 21
11 51 36 67 57 l28 36 0 277 0 277 -27 35 c-15 20 -47 45 -71 57 -43 21 -45
21 -1193 21 -924 -1 -1155 -3 -1179 -14z m1374 -187 c-17 -24 -69 -156 -69
-175 0 -14 25 2 57 37 51 56 109 94 173 113 29 9 55 16 57 16 2 0 -11 -16 -30
-35 -38 -39 -84 -127 -115 -220 -28 -87 -35 -118 -22 -110 6 4 10 -6 10 -24
l0 -30 -300 -3 -300 -3 0 33 c0 22 5 32 15 32 18 0 14 20 -23 125 -34 96 -57
139 -100 187 l-37 41 35 -8 c58 -12 128 -53 182 -105 47 -46 68 -59 68 -44 0
15 -47 114 -72 152 -34 49 -22 55 42 22 55 -28 106 -75 156 -143 l43 -58 35
55 c44 69 103 129 153 155 56 30 68 27 42 -10z"/>
<path d="M6809 2970 c-47 -25 -86 -71 -99 -118 -5 -20 -10 -137 -10 -262 0
-198 3 -230 19 -265 22 -47 64 -89 104 -104 40 -15 2314 -15 2354 0 40 15 82
57 104 104 16 35 19 67 19 265 0 125 -5 242 -10 262 -14 48 -53 94 -101 118
-37 20 -66 20 -1191 20 -1117 -1 -1154 -1 -1189 -20z m1420 -181 c-17 -24 -69
-156 -69 -175 0 -14 25 2 57 37 51 56 109 94 173 113 29 9 55 16 57 16 2 0
-11 -16 -30 -35 -38 -39 -84 -127 -115 -220 -28 -87 -35 -118 -22 -110 6 4 10
-6 10 -24 l0 -30 -300 -3 -300 -3 0 33 c0 22 5 32 15 32 18 0 14 20 -23 125
-34 96 -57 139 -100 187 l-37 41 35 -8 c58 -12 128 -53 182 -105 47 -46 68
-59 68 -44 0 15 -47 114 -72 152 -34 49 -22 55 42 22 55 -28 106 -75 156 -143
l43 -58 35 55 c44 69 103 129 153 155 56 30 68 27 42 -10z"/>
<path d="M11962 2969 c-24 -12 -55 -37 -70 -57 l-27 -35 0 -277 0 -277 28 -36
c16 -21 46 -46 67 -57 38 -20 61 -20 1191 -20 l1153 0 44 21 c26 13 54 38 70
62 l27 40 3 241 c2 133 0 256 -3 274 -7 40 -68 110 -112 129 -27 11 -240 13
-1180 13 l-1148 0 -43 -21z m1507 -190 c-17 -24 -69 -156 -69 -175 0 -14 25 2
57 37 51 56 109 94 173 113 29 9 55 16 57 16 2 0 -11 -16 -30 -35 -38 -39 -84
-127 -115 -220 -28 -87 -35 -118 -22 -110 6 4 10 -6 10 -24 l0 -30 -300 -3
-300 -3 0 33 c0 22 5 32 15 32 18 0 14 20 -23 125 -34 96 -57 139 -100 187
l-37 41 35 -8 c58 -12 128 -53 182 -105 47 -46 68 -59 68 -44 0 15 -47 114
-72 152 -34 49 -22 55 42 22 55 -28 106 -75 156 -143 l43 -58 35 55 c44 69
103 129 153 155 56 30 68 27 42 -10z"/>
<path d="M6832 1829 c-46 -14 -109 -80 -122 -129 -7 -26 -10 -126 -8 -273 3
-270 9 -290 93 -342 l48 -30 1156 0 1156 0 47 27 c35 21 53 41 73 82 l26 53
-3 239 c-3 273 -9 293 -87 349 l-43 30 -1151 2 c-709 1 -1165 -2 -1185 -8z
m1397 -200 c-17 -24 -69 -156 -69 -175 0 -14 25 2 57 37 51 56 109 94 173 113
29 9 55 16 57 16 2 0 -11 -16 -30 -35 -38 -39 -84 -127 -115 -220 -28 -87 -35
-118 -22 -110 6 4 10 -6 10 -24 l0 -30 -300 -3 -300 -3 0 33 c0 22 5 32 15 32
18 0 14 20 -23 125 -34 96 -57 139 -100 187 l-37 41 35 -8 c58 -12 128 -53
182 -105 47 -46 68 -59 68 -44 0 15 -47 114 -72 152 -34 49 -22 55 42 22 55
-28 106 -75 156 -143 l43 -58 35 55 c44 69 103 129 153 155 56 30 68 27 42
-10z"/>
</g>
</svg>
