<?xml version="1.0" standalone="no"?>
<!DOCTYPE svg PUBLIC "-//W3C//DTD SVG 20010904//EN"
 "http://www.w3.org/TR/2001/REC-SVG-20010904/DTD/svg10.dtd">
<svg version="1.0" xmlns="http://www.w3.org/2000/svg"
 width="348.000000pt" height="479.000000pt" viewBox="0 0 348.000000 479.000000"
 preserveAspectRatio="xMidYMid meet">
<metadata>
Created by potrace 1.15, written by Peter Selinger 2001-2017
</metadata>
<g transform="translate(0.000000,479.000000) scale(0.100000,-0.100000)"
fill="#000000" stroke="none">
<path d="M2679 4761 c-32 -32 -35 -47 -18 -85 14 -31 57 -49 93 -40 27 6 56
48 56 79 0 24 -55 75 -80 75 -12 0 -35 -13 -51 -29z"/>
<path d="M650 4737 c-39 -20 -56 -58 -41 -94 22 -54 86 -69 126 -28 39 38 27
102 -22 124 -30 14 -32 14 -63 -2z"/>
<path d="M2514 4601 c-360 -123 -670 -481 -863 -998 -33 -88 -91 -273 -91
-289 0 -2 150 -4 334 -4 l334 0 7 78 c47 552 160 942 335 1160 44 55 55 83 32
82 -4 -1 -43 -13 -88 -29z"/>
<path d="M3370 4587 c-76 -39 -46 -147 41 -147 30 0 69 44 69 77 -1 32 -15 55
-47 71 -27 15 -32 15 -63 -1z"/>
<path d="M796 4582 c-3 -5 18 -31 46 -58 179 -173 329 -556 414 -1051 l28
-163 117 0 118 0 12 43 c28 107 86 273 136 390 l55 127 -33 53 c-62 101 -173
242 -258 328 -158 159 -323 261 -505 314 -93 26 -122 30 -130 17z"/>
<path d="M42 4523 c-21 -8 -44 -62 -36 -86 12 -39 35 -57 75 -57 43 0 79 35
79 77 0 49 -67 87 -118 66z"/>
<path d="M3175 4460 c-237 -35 -464 -160 -676 -371 -146 -145 -153 -158 -178
-309 -22 -128 -51 -379 -51 -437 l0 -33 210 0 c168 0 210 3 210 13 0 33 86
324 132 447 116 311 285 581 414 660 60 38 44 46 -61 30z"/>
<path d="M228 4429 c-3 -8 14 -29 36 -47 162 -135 312 -406 434 -782 22 -69
45 -144 51 -167 6 -24 16 -61 21 -83 l11 -40 231 0 231 0 -7 53 c-26 202 -99
510 -131 553 -13 17 -59 68 -101 113 -129 137 -273 246 -419 316 -129 62 -347
113 -357 84z"/>
<path d="M720 3155 l0 -85 1000 0 1000 0 0 85 0 85 -1000 0 -1000 0 0 -85z"/>
<path d="M770 2191 c0 -876 -2 -917 -56 -1159 -14 -62 -59 -213 -101 -335 -71
-208 -75 -225 -70 -284 10 -107 77 -207 172 -256 56 -29 176 -35 243 -13 55
19 129 78 160 129 34 54 149 397 191 568 22 89 42 163 44 165 1 2 29 -6 61
-18 l59 -22 -9 -220 c-5 -122 -9 -286 -9 -366 0 -131 2 -149 23 -192 30 -60
89 -120 150 -149 38 -19 63 -24 132 -24 73 0 92 4 135 27 86 45 155 134 169
218 4 19 13 176 21 349 8 173 17 316 19 318 2 2 6 -20 10 -49 14 -107 59 -287
117 -465 56 -170 63 -185 109 -236 67 -73 130 -101 230 -101 61 0 85 5 132 27
102 49 166 146 175 261 4 52 -1 81 -40 202 -55 170 -89 303 -114 444 -17 97
-18 168 -14 983 2 483 0 907 -4 943 l-7 64 -964 0 -964 0 0 -809z m1150 545
c277 -96 439 -385 376 -669 -26 -115 -68 -190 -156 -279 -91 -92 -182 -140
-310 -165 -183 -36 -378 29 -516 174 -99 102 -154 244 -154 395 0 158 58 296
170 408 154 154 385 207 590 136z"/>
<path d="M1450 2192 c-73 -40 -104 -122 -75 -198 25 -66 73 -99 146 -99 62 0
94 17 133 69 29 39 29 133 0 172 -51 69 -137 93 -204 56z"/>
</g>
</svg>
