<?xml version="1.0" standalone="no"?>
<!DOCTYPE svg PUBLIC "-//W3C//DTD SVG 20010904//EN"
 "http://www.w3.org/TR/2001/REC-SVG-20010904/DTD/svg10.dtd">
<svg version="1.0" xmlns="http://www.w3.org/2000/svg"
 width="2133.000000pt" height="2133.000000pt" viewBox="0 0 2133.000000 2133.000000"
 preserveAspectRatio="xMidYMid meet">
<metadata>
Created by potrace 1.15, written by Peter Selinger 2001-2017
</metadata>
<g transform="translate(0.000000,2133.000000) scale(0.100000,-0.100000)"
fill="#000000" stroke="none">
<path d="M19290 21324 c-30 -2 -129 -8 -220 -14 -708 -45 -1442 -158 -2150
-331 -247 -60 -735 -194 -758 -208 -25 -16 54 -451 134 -729 513 -1786 2113
-3336 3898 -3777 195 -48 426 -90 554 -101 l80 -7 22 74 c49 161 171 668 223
924 116 568 184 1057 234 1675 15 187 18 340 18 915 0 903 -11 1059 -89 1213
-64 128 -166 226 -298 286 -88 41 -142 52 -318 67 -125 10 -1206 21 -1330 13z"/>
<path d="M14830 20288 c-930 -398 -1728 -828 -2586 -1393 -2174 -1433 -4207
-3445 -6025 -5965 -435 -602 -922 -1336 -1332 -2006 -64 -104 -119 -197 -122
-205 -3 -9 236 -255 702 -722 l708 -707 89 35 c318 125 719 223 1041 255 255
26 591 10 815 -40 724 -158 1263 -695 1419 -1412 51 -238 69 -580 42 -828 -36
-329 -134 -726 -256 -1035 l-35 -90 733 -733 732 -732 270 166 c2742 1688
5015 3597 6716 5640 1136 1364 2003 2775 2603 4237 43 104 75 191 72 194 -2 3
-76 18 -163 34 -442 79 -960 243 -1393 439 -1944 882 -3465 2739 -3870 4728
-20 100 -39 184 -41 186 -2 2 -56 -19 -119 -46z m-1144 -1556 c52 -26 108 -89
125 -138 20 -59 16 -141 -11 -196 -77 -163 -298 -192 -415 -55 -121 141 -57
349 125 408 40 13 133 3 176 -19z m186 -712 c202 -311 330 -714 368 -1155 13
-159 13 -456 -1 -630 l-11 -140 -80 -140 c-140 -244 -345 -557 -538 -820 -36
-49 -70 -96 -74 -104 -6 -9 14 -35 65 -87 l73 -73 90 122 c681 923 1082 1779
1122 2396 7 103 7 103 26 80 32 -41 165 -319 198 -414 44 -125 86 -305 112
-470 18 -117 22 -185 22 -410 0 -162 -5 -316 -12 -385 -16 -133 -63 -418 -90
-534 l-18 -80 -150 -57 c-188 -71 -351 -142 -529 -232 -225 -112 -497 -269
-494 -285 1 -4 34 -38 74 -75 l73 -69 133 77 c594 343 1226 568 1829 652 179
25 640 25 795 0 137 -21 326 -67 425 -102 101 -36 271 -116 265 -125 -2 -4
-36 -10 -74 -14 -183 -17 -507 -124 -786 -261 -498 -244 -957 -568 -1609
-1137 l-31 -27 74 -74 73 -75 128 112 c254 224 606 497 825 642 l110 72 128
11 c163 14 541 14 683 0 229 -22 468 -72 659 -139 126 -44 337 -147 449 -220
129 -84 130 -86 38 -82 -98 5 -296 -13 -432 -39 -467 -89 -1017 -308 -1600
-637 -178 -100 -430 -252 -430 -260 0 -4 39 -46 87 -94 l86 -87 -71 -78 c-39
-43 -136 -143 -216 -223 l-146 -145 -51 51 -50 50 -137 -140 c-483 -495 -1686
-1705 -1692 -1701 -10 6 -950 -950 -950 -967 0 -8 -25 -38 -55 -68 -30 -30
-55 -59 -55 -65 0 -6 -20 -31 -45 -55 -24 -24 -42 -46 -40 -50 2 -4 -13 -24
-35 -45 -21 -20 -36 -43 -34 -49 3 -7 -9 -25 -26 -41 -16 -16 -30 -34 -30 -40
0 -6 -11 -22 -24 -34 -14 -13 -22 -28 -20 -35 3 -7 -7 -23 -21 -36 -14 -13
-25 -29 -25 -35 0 -6 -11 -22 -25 -35 -13 -12 -22 -26 -20 -30 3 -4 -5 -16
-16 -26 -11 -10 -18 -23 -15 -30 2 -6 -6 -22 -19 -34 -14 -13 -22 -26 -20 -30
3 -4 -4 -15 -15 -25 -11 -10 -20 -24 -20 -30 0 -7 -6 -18 -14 -25 -8 -6 -13
-17 -10 -24 3 -7 -4 -20 -15 -30 -11 -10 -18 -22 -16 -26 3 -4 -2 -13 -10 -20
-8 -7 -15 -18 -15 -25 0 -7 -7 -18 -15 -25 -8 -7 -12 -16 -10 -21 6 -9 -10
-41 -34 -71 -8 -10 -10 -18 -6 -18 4 0 0 -9 -9 -19 -10 -11 -15 -24 -12 -29 3
-5 -1 -15 -9 -22 -8 -7 -15 -18 -15 -25 0 -7 -7 -18 -15 -25 -8 -7 -13 -16
-10 -20 3 -4 -2 -13 -11 -20 -8 -7 -13 -19 -10 -26 3 -7 -2 -18 -10 -24 -8 -7
-14 -18 -14 -25 0 -6 -9 -20 -20 -30 -11 -10 -18 -21 -15 -23 3 -3 -5 -16 -17
-29 -12 -12 -18 -26 -14 -30 8 -8 -143 -163 -160 -163 -6 0 -19 -9 -29 -20
-10 -12 -25 -18 -32 -16 -7 3 -15 1 -18 -4 -5 -9 -91 -53 -105 -55 -3 0 -10
-3 -16 -7 -6 -4 -21 -6 -32 -3 -12 2 -24 0 -27 -6 -4 -5 -17 -9 -30 -9 -13 0
-26 -4 -30 -10 -3 -5 -11 -7 -18 -5 -14 5 -131 16 -166 15 -12 0 -28 3 -35 7
-6 4 -14 8 -18 9 -5 1 -9 3 -10 4 -2 1 -15 3 -29 4 -14 0 -33 7 -42 15 -10 7
-17 10 -17 6 0 -5 -9 0 -19 9 -11 10 -24 15 -29 12 -5 -3 -15 1 -22 9 -7 8
-18 15 -24 15 -7 0 -25 14 -41 30 -16 16 -33 30 -38 30 -18 0 -88 63 -83 75 2
7 -11 27 -29 45 -19 18 -32 36 -30 40 3 4 -2 14 -11 21 -15 12 -29 39 -34 64
-1 6 -8 17 -16 26 -8 9 -14 20 -13 25 1 5 0 11 -1 14 -3 9 -10 45 -15 79 -3
18 -8 37 -11 42 -16 26 -3 205 17 255 7 16 11 33 10 38 -1 4 4 14 10 22 6 8 8
14 4 14 -4 0 -2 7 5 15 7 8 9 15 5 15 -5 0 0 9 9 19 10 11 15 24 12 29 -3 5 1
15 9 22 8 7 15 18 15 25 0 7 7 18 15 25 8 7 13 16 10 20 -3 4 2 13 11 20 8 7
13 19 10 26 -3 7 -1 16 4 19 6 4 19 26 30 50 11 24 24 46 30 50 5 3 7 12 4 19
-3 7 2 19 10 26 9 7 14 16 11 20 -3 4 2 13 10 20 8 7 15 18 15 25 0 7 6 18 14
25 8 6 13 17 10 24 -3 7 4 20 15 30 11 10 18 22 16 26 -3 4 2 13 10 20 8 7 15
18 15 25 0 6 9 20 19 29 11 10 18 23 15 30 -3 7 4 20 15 30 11 10 18 22 16 26
-3 4 2 13 10 20 8 7 15 20 15 30 0 9 9 25 20 35 11 10 18 21 15 25 -2 4 7 18
20 30 14 13 25 29 25 35 0 7 9 20 19 29 11 10 18 23 15 30 -3 7 7 23 21 36 14
13 25 29 25 35 0 6 11 22 25 35 13 12 22 26 20 30 -2 4 9 19 25 35 15 15 26
33 24 39 -2 6 9 25 26 41 16 16 30 33 30 39 0 5 14 25 32 43 18 18 28 33 22
33 -5 0 -36 -27 -68 -59 -32 -33 -64 -57 -70 -55 -6 2 -64 -52 -130 -122 -65
-69 -124 -123 -131 -121 -6 3 -65 -51 -130 -120 -64 -68 -123 -122 -130 -119
-7 2 -67 -54 -134 -124 -73 -78 -127 -127 -135 -124 -8 3 -39 -24 -76 -65 -34
-39 -67 -68 -72 -65 -5 3 -20 -4 -34 -17 -13 -12 -24 -19 -24 -14 0 4 -9 0
-19 -9 -10 -9 -31 -18 -46 -20 -15 -2 -31 -9 -35 -17 -5 -7 -19 -14 -32 -14
-13 0 -27 -3 -33 -6 -5 -4 -19 -5 -29 -3 -11 1 -25 0 -30 -4 -15 -9 -198 -11
-211 -2 -5 4 -18 6 -27 5 -10 -2 -20 1 -24 6 -3 5 -10 7 -15 3 -5 -3 -15 -1
-22 4 -7 6 -14 10 -17 10 -3 1 -18 5 -33 11 -16 6 -32 9 -37 6 -4 -2 -15 4
-25 15 -10 11 -23 20 -30 20 -7 0 -20 9 -30 20 -10 11 -23 20 -29 20 -14 0
-146 131 -146 146 0 6 -9 19 -20 29 -11 10 -20 23 -20 30 0 7 -9 20 -20 30
-11 10 -17 21 -15 26 3 4 0 11 -6 14 -5 4 -8 13 -5 20 2 7 2 16 -2 20 -4 4 -7
10 -8 13 0 4 -6 20 -13 36 -6 16 -14 45 -17 65 -9 54 -10 205 -2 216 3 6 9 32
12 59 3 27 13 58 23 68 9 10 13 18 8 18 -4 0 -2 6 4 13 6 8 8 17 4 20 -3 4 1
15 10 25 10 10 15 21 12 24 -3 3 4 13 15 23 11 10 20 24 20 31 0 17 270 296
282 292 5 -2 64 52 131 119 66 68 126 122 131 121 6 -1 64 52 129 119 65 66
124 120 130 119 7 0 76 65 155 145 133 136 142 147 133 171 -5 14 -15 29 -21
33 -5 3 -8 10 -5 15 3 4 -2 13 -10 20 -8 7 -15 18 -15 25 0 7 -7 18 -15 25 -8
7 -12 17 -9 22 3 5 -2 18 -12 29 -9 10 -14 19 -9 19 4 0 2 6 -4 14 -16 19 -36
15 -69 -17 -16 -15 -31 -25 -33 -22 -3 3 -16 -6 -29 -20 -13 -14 -29 -25 -35
-25 -7 0 -20 -9 -30 -20 -10 -12 -24 -19 -31 -16 -6 2 -22 -6 -35 -20 -12 -13
-28 -24 -34 -24 -7 0 -20 -9 -30 -20 -10 -11 -21 -18 -25 -15 -4 2 -17 -7 -30
-20 -13 -13 -26 -22 -30 -20 -4 3 -13 -2 -20 -10 -6 -7 -17 -12 -24 -9 -7 3
-21 -4 -31 -16 -10 -11 -24 -20 -30 -20 -7 0 -18 -7 -25 -15 -7 -8 -16 -13
-20 -10 -4 2 -15 -4 -25 -15 -10 -11 -24 -20 -30 -20 -7 0 -18 -6 -25 -14 -6
-8 -17 -13 -24 -10 -7 3 -19 -2 -26 -10 -7 -9 -16 -14 -20 -11 -4 3 -13 -2
-20 -10 -7 -8 -18 -15 -25 -15 -7 0 -18 -7 -25 -15 -7 -8 -16 -13 -20 -10 -4
3 -13 -2 -20 -10 -6 -7 -17 -12 -24 -9 -7 3 -19 -2 -26 -10 -7 -9 -16 -14 -20
-11 -4 3 -13 -2 -20 -10 -7 -8 -18 -15 -25 -15 -7 0 -18 -7 -25 -15 -7 -8 -17
-12 -22 -9 -5 3 -17 -1 -26 -9 -9 -9 -20 -16 -24 -17 -19 -2 -44 -14 -60 -28
-10 -8 -18 -11 -18 -7 0 4 -9 0 -19 -9 -11 -10 -24 -15 -29 -12 -5 3 -15 -1
-22 -9 -7 -8 -16 -13 -20 -10 -5 3 -12 0 -15 -5 -6 -10 -36 -25 -60 -30 -5 -1
-18 -8 -27 -17 -9 -8 -21 -12 -26 -9 -5 3 -15 -1 -22 -9 -7 -8 -16 -15 -21
-15 -4 0 -20 -5 -36 -12 -15 -6 -31 -12 -35 -13 -5 -2 -11 -4 -15 -5 -5 -2
-12 -4 -18 -5 -5 -2 -12 -4 -15 -5 -38 -14 -213 -25 -237 -15 -10 5 -26 7 -36
6 -10 -1 -24 2 -30 7 -7 5 -21 8 -32 6 -10 -1 -25 2 -32 8 -7 6 -13 7 -13 3 0
-5 -8 -2 -17 6 -31 24 -63 40 -72 34 -5 -2 -14 2 -21 10 -7 8 -18 15 -24 15
-7 0 -27 16 -46 35 -19 19 -38 35 -43 35 -19 0 -68 43 -63 55 2 7 -13 30 -34
50 -22 21 -37 42 -35 45 3 4 -2 13 -10 20 -8 7 -15 18 -15 25 0 7 -7 18 -15
25 -8 7 -13 16 -10 20 3 5 1 11 -5 15 -6 4 -8 11 -4 16 3 5 0 16 -6 24 -7 8
-9 15 -5 15 4 0 2 7 -5 15 -6 8 -14 38 -16 67 -3 29 -8 60 -11 68 -9 25 -9 91
0 97 4 3 7 20 5 38 -1 19 1 37 5 41 4 4 7 18 7 30 0 13 5 26 10 29 6 4 8 11 4
16 -3 5 0 16 6 24 7 8 9 15 5 15 -5 0 0 9 10 20 10 11 14 20 10 20 -4 0 0 9 9
19 10 11 15 24 12 29 -3 5 3 17 14 27 11 10 20 23 20 29 0 14 151 166 166 166
6 0 19 9 29 20 10 11 21 17 25 15 4 -3 13 2 20 10 7 8 18 15 25 15 7 0 18 6
25 14 6 8 17 13 24 10 7 -3 19 2 26 10 7 9 16 14 20 11 4 -3 13 2 20 10 7 8
18 15 24 15 7 0 17 5 24 12 6 6 23 12 38 14 14 2 34 10 43 18 10 9 20 14 23
11 3 -3 11 1 18 10 7 8 18 15 25 15 7 0 18 7 25 15 7 8 17 12 22 9 5 -3 18 2
29 12 10 9 19 14 19 9 0 -4 6 -2 13 4 8 6 16 9 19 6 3 -3 11 1 18 10 7 8 18
15 25 15 7 0 18 6 25 14 6 8 17 13 24 10 7 -3 19 2 26 10 7 9 16 14 20 11 4
-3 13 2 20 10 7 8 18 15 25 15 7 0 18 7 25 15 7 8 16 13 20 10 4 -2 16 5 26
16 10 11 23 18 30 15 7 -3 18 2 24 10 7 8 18 14 25 14 6 0 20 9 30 20 10 11
21 18 23 15 3 -3 18 7 34 22 15 15 28 23 28 18 0 -5 11 2 24 14 14 13 29 20
34 17 5 -3 17 3 27 14 10 11 23 20 30 20 6 0 22 11 35 25 13 14 29 25 35 25 6
0 22 11 35 25 12 13 26 22 30 20 4 -2 22 11 40 30 18 18 38 31 44 29 7 -2 25
9 41 26 16 16 34 30 40 30 6 0 26 16 45 35 19 19 39 35 45 35 6 0 29 18 50 40
21 22 44 40 50 40 6 0 42 32 80 70 38 39 74 70 80 70 15 0 647 635 643 646 -3
12 1758 1799 1772 1799 5 0 15 6 22 13 10 10 -2 27 -67 88 l-79 75 219 219
220 220 107 -107 c69 -69 111 -104 117 -98 22 22 241 414 336 600 356 701 535
1291 535 1762 0 168 -7 167 92 13z m938 89 c93 -42 150 -129 150 -229 -1 -183
-190 -304 -356 -226 -116 54 -170 180 -132 310 15 51 99 137 148 153 58 18
140 15 190 -8z m-3370 -990 c30 -17 74 -47 98 -68 l43 -37 -56 -577 -55 -578
-27 -24 c-16 -14 -52 -37 -81 -51 -44 -22 -62 -26 -106 -21 -66 7 -157 52
-221 109 l-48 44 42 520 c51 631 47 599 80 630 101 95 218 114 331 53z m495
-459 l170 -170 -190 -190 c-104 -104 -191 -187 -193 -185 -7 6 31 715 38 715
3 0 82 -77 175 -170z m-1112 -200 c-14 -195 -28 -357 -31 -360 -2 -3 -78 72
-168 165 l-163 170 191 192 c106 106 193 191 195 190 1 -2 -10 -162 -24 -357z
m-628 -930 l-220 -220 78 -77 77 -78 220 220 220 220 157 -158 158 -157 -425
-425 -425 -425 -157 157 -158 158 170 170 170 170 -77 77 -77 77 -167 -164
c-92 -91 -171 -165 -176 -165 -4 0 -78 70 -163 155 l-155 155 425 425 425 425
160 -160 160 -160 -220 -220z m7861 -488 c58 -30 110 -92 128 -153 20 -65 20
-83 1 -145 -27 -90 -107 -160 -206 -178 -85 -15 -192 34 -244 112 -93 141 -22
329 145 383 40 13 133 3 176 -19z m-9001 -352 l160 -160 -405 -406 c-223 -223
-417 -414 -432 -425 l-27 -20 -65 77 c-90 105 -121 170 -121 254 0 120 17 142
384 513 179 180 330 327 336 327 5 0 82 -72 170 -160z m460 -460 l160 -160
-428 -428 -427 -427 -162 163 -163 162 425 425 c234 234 427 425 430 425 3 0
77 -72 165 -160z m9214 -436 c149 -44 219 -235 135 -370 -61 -99 -169 -141
-279 -110 -106 31 -185 134 -185 241 0 102 72 202 170 235 68 24 92 24 159 4z
m-10899 -309 l155 -155 -175 -175 -175 -175 130 -130 130 -130 -73 -73 -73
-72 -120 128 c-67 70 -126 127 -132 127 -7 0 -89 -78 -184 -172 l-173 -173
-157 158 -158 157 420 420 c231 231 422 420 425 420 3 0 75 -70 160 -155z
m473 -473 l157 -157 -105 -105 -106 -105 -79 81 c-134 139 -171 229 -130 320
18 43 84 124 100 124 3 0 76 -71 163 -158z m8562 -1097 c28 -13 72 -44 100
-68 l49 -44 -53 -574 -54 -574 -31 -29 c-17 -15 -55 -40 -85 -53 -44 -21 -62
-24 -105 -19 -64 7 -157 53 -219 108 l-47 43 46 560 c52 625 42 577 129 633
87 56 179 62 270 17z m480 -825 c-104 -104 -190 -188 -192 -186 -2 1 6 162 17
357 11 195 20 356 20 359 0 3 78 -73 172 -168 l173 -172 -190 -190z m-1090
145 c-14 -186 -26 -340 -28 -341 -2 -2 -77 71 -167 161 l-165 165 190 190
c108 108 191 184 193 177 2 -8 -8 -166 -23 -352z m-415 -690 c0 -5 -98 -108
-217 -227 l-218 -218 78 -77 77 -78 218 218 c119 119 222 217 227 217 6 0 80
-70 165 -155 l155 -155 -428 -427 -427 -428 -155 155 c-85 85 -155 159 -155
165 0 5 75 85 167 177 l168 168 -78 77 -77 78 -168 -168 c-92 -92 -172 -167
-177 -167 -5 0 -78 69 -162 152 l-153 153 427 427 428 428 152 -152 c84 -84
153 -157 153 -163z m-1620 -1651 l-425 -425 -67 71 c-42 44 -80 97 -99 137
-28 58 -31 73 -27 137 5 116 28 145 393 514 l319 323 166 -166 165 -165 -425
-426z m728 123 l164 -164 -429 -421 -428 -422 -163 163 -162 162 422 422 c233
233 425 423 428 423 3 0 79 -74 168 -163z m-1678 -742 l155 -155 -178 -178
-177 -177 127 -127 128 -128 -70 -70 -70 -70 -125 125 c-69 69 -130 125 -135
125 -5 0 -87 -78 -182 -172 l-173 -173 -157 158 -158 157 420 420 c231 231
424 420 430 420 6 0 80 -70 165 -155z m514 -735 l-105 -105 -72 76 c-170 181
-189 286 -76 413 l43 49 157 -164 158 -164 -105 -105z"/>
<path d="M13489 18648 c-76 -43 -104 -158 -56 -228 39 -58 71 -75 141 -75 54
0 68 4 100 29 126 96 60 296 -98 296 -33 0 -64 -8 -87 -22z"/>
<path d="M12525 15570 l-160 -160 55 -54 c84 -81 2637 -2601 2867 -2830 l203
-201 155 155 c86 85 154 161 153 167 -2 10 -2779 2759 -3070 3040 l-43 43
-160 -160z"/>
<path d="M12555 13704 c-364 -34 -664 -200 -872 -481 -151 -203 -225 -428
-227 -688 -1 -216 33 -367 127 -549 197 -385 569 -625 998 -643 344 -15 631
94 878 332 478 461 481 1223 5 1691 -210 208 -477 323 -779 337 -49 3 -108 3
-130 1z m-313 -753 c182 -88 256 -297 168 -478 -60 -122 -179 -196 -315 -196
-103 0 -175 31 -252 108 -51 52 -64 72 -82 129 -45 146 -10 281 97 378 76 69
136 89 252 85 63 -3 97 -10 132 -26z"/>
<path d="M14645 18036 c-42 -18 -93 -79 -101 -121 -11 -61 4 -106 51 -152 33
-31 55 -43 87 -48 117 -18 222 96 189 205 -30 102 -136 156 -226 116z"/>
<path d="M17859 14958 c-76 -43 -104 -158 -56 -228 39 -58 71 -75 142 -75 49
0 70 5 92 21 102 75 99 211 -6 281 -45 30 -122 31 -172 1z"/>
<path d="M18565 13696 c-54 -33 -78 -76 -78 -141 0 -97 70 -165 170 -165 61 0
108 28 140 85 43 75 18 172 -56 222 -47 32 -122 31 -176 -1z"/>
<path d="M4780 14495 c-724 -82 -1518 -419 -2205 -936 -317 -238 -385 -302
-1491 -1411 -949 -950 -983 -985 -1018 -1058 -51 -105 -66 -169 -66 -289 0
-118 17 -195 62 -285 107 -213 323 -345 565 -346 66 0 119 9 260 46 490 126
905 203 1293 240 135 12 236 15 440 11 255 -5 325 -12 505 -52 29 -6 32 -3 64
57 19 35 100 176 179 313 683 1179 1390 2256 2158 3286 118 158 214 289 214
293 0 10 -113 63 -182 84 -128 40 -235 54 -448 57 -135 3 -248 -1 -330 -10z"/>
<path d="M3995 9387 c-355 -654 -875 -1677 -922 -1814 -23 -67 -27 -94 -26
-193 0 -204 55 -323 234 -504 l100 -101 52 60 c29 32 146 166 260 297 487 557
1220 1329 1351 1423 30 22 56 45 56 50 0 13 -972 985 -985 985 -6 0 -59 -91
-120 -203z"/>
<path d="M7322 8345 c-421 -64 -887 -261 -1255 -532 -73 -53 -193 -166 -417
-391 -1377 -1384 -2492 -2820 -3035 -3907 -58 -115 -112 -237 -120 -270 -21
-84 -19 -216 5 -309 29 -115 73 -189 165 -282 126 -127 263 -184 440 -184 162
0 242 30 570 210 1093 598 2370 1610 3744 2965 150 148 310 315 354 370 293
363 501 832 573 1290 23 148 23 380 0 500 -55 287 -206 454 -473 527 -101 27
-407 35 -551 13z"/>
<path d="M1770 7740 c-201 -19 -316 -67 -418 -174 -76 -81 -118 -155 -190
-338 -28 -70 -66 -151 -85 -180 -45 -70 -116 -134 -183 -165 -30 -13 -54 -29
-54 -35 0 -7 47 -9 145 -6 80 2 145 3 145 2 0 -1 -36 -71 -79 -156 -44 -84
-94 -189 -111 -232 -63 -159 -100 -375 -100 -578 l0 -90 73 67 c245 228 511
394 768 479 103 35 266 72 275 64 2 -3 -26 -25 -63 -50 -205 -137 -417 -376
-584 -658 -168 -283 -203 -332 -315 -444 -86 -85 -195 -163 -287 -207 -75 -35
-189 -69 -232 -69 -153 -1 183 -101 490 -147 184 -27 611 -24 800 5 310 48
606 142 875 277 51 25 94 45 96 43 2 -3 -3 -53 -11 -114 -17 -125 -19 -210 -6
-218 5 -3 21 14 36 39 75 128 147 175 394 255 207 67 286 107 368 187 162 157
212 545 136 1043 -21 139 -28 149 -43 59 -31 -187 -94 -312 -197 -388 -85 -63
-150 -93 -318 -146 -82 -26 -176 -61 -209 -77 -71 -36 -148 -106 -184 -168
-32 -54 -36 -44 -24 76 5 49 8 90 7 92 -1 1 -38 -11 -81 -29 -207 -82 -805
-301 -810 -297 -1 2 39 48 89 103 259 286 437 560 513 787 69 209 161 394 255
515 27 35 49 65 49 68 0 3 -52 5 -114 5 -278 0 -578 -72 -863 -205 l-93 -44 0
55 c0 119 54 298 127 423 97 165 266 290 498 370 50 17 110 42 135 55 25 14
73 32 108 42 39 11 58 20 50 25 -20 11 -261 56 -363 68 -137 15 -320 20 -415
11z"/>
<path d="M14325 5619 c-442 -339 -1334 -960 -1930 -1344 -581 -374 -1379 -857
-1883 -1139 -88 -50 -101 -60 -97 -79 19 -84 27 -179 32 -367 9 -340 -20 -640
-143 -1505 -83 -579 -86 -624 -45 -755 57 -182 202 -333 387 -403 52 -19 78
-22 214 -22 171 0 214 10 329 77 70 41 1983 1948 2144 2138 641 756 1046 1637
1143 2490 23 203 15 543 -16 684 -21 100 -75 256 -88 256 -4 0 -25 -14 -47
-31z"/>
<path d="M8555 5043 c-57 -79 -672 -676 -1075 -1043 -120 -109 -520 -462 -655
-578 l-50 -43 140 -137 c156 -153 241 -207 371 -238 96 -22 267 -15 349 14 74
26 898 444 1285 652 300 161 710 386 719 395 7 7 -1021 1035 -1034 1035 -5 0
-28 -26 -50 -57z"/>
<path d="M5730 3595 c-211 -31 -346 -90 -439 -192 -73 -79 -119 -173 -170
-344 -22 -74 -47 -154 -55 -179 -35 -95 -107 -181 -201 -238 -41 -26 -47 -32
-31 -38 18 -7 237 19 270 32 19 7 21 15 -47 -148 -54 -127 -98 -262 -123 -378
-15 -69 -19 -125 -18 -295 0 -115 5 -220 10 -233 10 -22 14 -19 90 69 234 272
561 495 873 593 105 33 112 33 65 -4 -74 -59 -216 -205 -284 -295 -127 -167
-194 -285 -350 -620 -144 -312 -403 -552 -664 -620 -32 -8 -61 -17 -63 -19 -3
-2 26 -11 64 -20 391 -89 867 -81 1283 20 290 71 607 207 863 371 37 24 69 43
70 43 2 0 3 -72 3 -159 -1 -192 7 -210 52 -119 58 118 146 187 334 264 215 88
316 153 388 248 117 154 139 450 65 847 -23 122 -68 306 -78 316 -3 2 -8 -36
-12 -84 -9 -111 -37 -220 -72 -284 -34 -64 -134 -157 -215 -203 -35 -19 -122
-59 -194 -89 -202 -83 -275 -139 -338 -256 l-33 -62 -7 62 c-3 34 -6 82 -6
106 l0 43 -151 -75 c-161 -81 -607 -295 -676 -326 l-42 -18 48 60 c173 215
342 495 421 700 17 45 51 156 75 248 63 238 129 401 205 505 l31 41 -57 3
c-32 2 -105 -4 -162 -13 -241 -38 -506 -137 -747 -280 -42 -25 -79 -45 -82
-45 -3 0 -3 57 0 128 4 97 11 148 31 215 79 265 228 426 519 561 51 24 114 57
141 74 27 17 71 39 98 48 27 9 47 18 44 21 -3 3 -56 12 -118 19 -140 17 -494
16 -608 -1z"/>
</g>
</svg>
